<svg xmlns="http://www.w3.org/2000/svg" width="750" height="1200" viewBox="0 0 750 1200" role="img" aria-labelledby="title desc">
  <title id="title">Cinque di Bastoni</title>
    <desc id="desc">Traditional-style carte da gioco italiane.</desc>
  <defs>
    <linearGradient id="paperGradient" x1="0" y1="0" x2="0" y2="1">
      <stop offset="0%" stop-color="#fffdf6"/>
      <stop offset="100%" stop-color="#f5eddc"/>
    </linearGradient>
    <filter id="shadow" x="-20%" y="-20%" width="140%" height="140%">
      <feDropShadow dx="0" dy="6" stdDeviation="8" flood-color="#000000" flood-opacity="0.18"/>
    </filter>
  </defs>
    <rect x="13" y="13" width="724" height="1174" rx="36" fill="url(#paperGradient)"/>
<g transform="translate(260 340) rotate(0)">
  <rect x="-19.36" y="-102.08" width="38.72" height="204.16" rx="17.6" fill="#8b6331" stroke="#314116" stroke-width="5.28"/>
  <path d="M -19.36 -59.84 C -59.84 -45.76, -59.84 0, -17.6 10.56" fill="none" stroke="#5c6b2d" stroke-width="5.28"/>
  <path d="M -19.36 49.28 C 63.36 31.68, 63.36 -10.56, 17.6 -24.64" fill="none" stroke="#5c6b2d" stroke-width="5.28"/>
  <path d="M -7.04 -105.6 C -38.72 -144.32, -59.84 -137.28, -49.28 -88 C -35.2 -63.36, -14.08 -77.44, -7.04 -105.6 Z" fill="#b4c08b" stroke="#314116" stroke-width="5.28"/>
  <path d="M 7.04 105.6 C 38.72 144.32, 59.84 137.28, 49.28 88 C 35.2 63.36, 14.08 77.44, 7.04 105.6 Z" fill="#b4c08b" stroke="#314116" stroke-width="5.28"/>
</g>
<g transform="translate(490 340) rotate(0)">
  <rect x="-19.36" y="-102.08" width="38.72" height="204.16" rx="17.6" fill="#8b6331" stroke="#314116" stroke-width="5.28"/>
  <path d="M -19.36 -59.84 C -59.84 -45.76, -59.84 0, -17.6 10.56" fill="none" stroke="#5c6b2d" stroke-width="5.28"/>
  <path d="M -19.36 49.28 C 63.36 31.68, 63.36 -10.56, 17.6 -24.64" fill="none" stroke="#5c6b2d" stroke-width="5.28"/>
  <path d="M -7.04 -105.6 C -38.72 -144.32, -59.84 -137.28, -49.28 -88 C -35.2 -63.36, -14.08 -77.44, -7.04 -105.6 Z" fill="#b4c08b" stroke="#314116" stroke-width="5.28"/>
  <path d="M 7.04 105.6 C 38.72 144.32, 59.84 137.28, 49.28 88 C 35.2 63.36, 14.08 77.44, 7.04 105.6 Z" fill="#b4c08b" stroke="#314116" stroke-width="5.28"/>
</g>
<g transform="translate(375 600) rotate(0)">
  <rect x="-29.04" y="-153.12" width="58.08" height="306.24" rx="26.4" fill="#8b6331" stroke="#314116" stroke-width="7.92"/>
  <path d="M -29.04 -89.76 C -89.76 -68.64, -89.76 0, -26.4 15.84" fill="none" stroke="#5c6b2d" stroke-width="7.92"/>
  <path d="M -29.04 73.92 C 95.04 47.52, 95.04 -15.84, 26.4 -36.96" fill="none" stroke="#5c6b2d" stroke-width="7.92"/>
  <path d="M -10.56 -158.4 C -58.08 -216.48, -89.76 -205.92, -73.92 -132 C -52.8 -95.04, -21.12 -116.16, -10.56 -158.4 Z" fill="#b4c08b" stroke="#314116" stroke-width="7.92"/>
  <path d="M 10.56 158.4 C 58.08 216.48, 89.76 205.92, 73.92 132 C 52.8 95.04, 21.12 116.16, 10.56 158.4 Z" fill="#b4c08b" stroke="#314116" stroke-width="7.92"/>
</g>
<g transform="translate(260 860) rotate(180)">
  <rect x="-19.36" y="-102.08" width="38.72" height="204.16" rx="17.6" fill="#8b6331" stroke="#314116" stroke-width="5.28"/>
  <path d="M -19.36 -59.84 C -59.84 -45.76, -59.84 0, -17.6 10.56" fill="none" stroke="#5c6b2d" stroke-width="5.28"/>
  <path d="M -19.36 49.28 C 63.36 31.68, 63.36 -10.56, 17.6 -24.64" fill="none" stroke="#5c6b2d" stroke-width="5.28"/>
  <path d="M -7.04 -105.6 C -38.72 -144.32, -59.84 -137.28, -49.28 -88 C -35.2 -63.36, -14.08 -77.44, -7.04 -105.6 Z" fill="#b4c08b" stroke="#314116" stroke-width="5.28"/>
  <path d="M 7.04 105.6 C 38.72 144.32, 59.84 137.28, 49.28 88 C 35.2 63.36, 14.08 77.44, 7.04 105.6 Z" fill="#b4c08b" stroke="#314116" stroke-width="5.28"/>
</g>
<g transform="translate(490 860) rotate(180)">
  <rect x="-19.36" y="-102.08" width="38.72" height="204.16" rx="17.6" fill="#8b6331" stroke="#314116" stroke-width="5.28"/>
  <path d="M -19.36 -59.84 C -59.84 -45.76, -59.84 0, -17.6 10.56" fill="none" stroke="#5c6b2d" stroke-width="5.28"/>
  <path d="M -19.36 49.28 C 63.36 31.68, 63.36 -10.56, 17.6 -24.64" fill="none" stroke="#5c6b2d" stroke-width="5.28"/>
  <path d="M -7.04 -105.6 C -38.72 -144.32, -59.84 -137.28, -49.28 -88 C -35.2 -63.36, -14.08 -77.44, -7.04 -105.6 Z" fill="#b4c08b" stroke="#314116" stroke-width="5.28"/>
  <path d="M 7.04 105.6 C 38.72 144.32, 59.84 137.28, 49.28 88 C 35.2 63.36, 14.08 77.44, 7.04 105.6 Z" fill="#b4c08b" stroke="#314116" stroke-width="5.28"/>
</g>
    <rect x="13" y="13" width="724" height="1174" rx="36" fill="none" stroke="#2a241c" stroke-opacity="0.32" stroke-width="5"/>
</svg>
