<svg xmlns="http://www.w3.org/2000/svg" width="750" height="1200" viewBox="0 0 750 1200" role="img" aria-labelledby="title desc">
  <title id="title">Asso di Bastoni</title>
    <desc id="desc">Traditional-style carte da gioco italiane.</desc>
  <defs>
    <linearGradient id="paperGradient" x1="0" y1="0" x2="0" y2="1">
      <stop offset="0%" stop-color="#fffdf6"/>
      <stop offset="100%" stop-color="#f5eddc"/>
    </linearGradient>
    <filter id="shadow" x="-20%" y="-20%" width="140%" height="140%">
      <feDropShadow dx="0" dy="6" stdDeviation="8" flood-color="#000000" flood-opacity="0.18"/>
    </filter>
  </defs>
    <rect x="13" y="13" width="724" height="1174" rx="36" fill="url(#paperGradient)"/>
  <ellipse cx="375" cy="600" rx="160" ry="240" fill="#fbf6ec" stroke="#556227" stroke-width="4"/>
  <g transform="translate(375 600) rotate(0)">
  <rect x="-41.8" y="-220.4" width="83.6" height="440.8" rx="38" fill="#8b6331" stroke="#314116" stroke-width="11.4"/>
  <path d="M -41.8 -129.2 C -129.2 -98.8, -129.2 0, -38 22.8" fill="none" stroke="#5c6b2d" stroke-width="11.4"/>
  <path d="M -41.8 106.4 C 136.8 68.4, 136.8 -22.8, 38 -53.2" fill="none" stroke="#5c6b2d" stroke-width="11.4"/>
  <path d="M -15.2 -228 C -83.6 -311.6, -129.2 -296.4, -106.4 -190 C -76 -136.8, -30.4 -167.2, -15.2 -228 Z" fill="#b4c08b" stroke="#314116" stroke-width="11.4"/>
  <path d="M 15.2 228 C 83.6 311.6, 129.2 296.4, 106.4 190 C 76 136.8, 30.4 167.2, 15.2 228 Z" fill="#b4c08b" stroke="#314116" stroke-width="11.4"/>
</g>
    <rect x="13" y="13" width="724" height="1174" rx="36" fill="none" stroke="#2a241c" stroke-opacity="0.32" stroke-width="5"/>
</svg>
