<svg xmlns="http://www.w3.org/2000/svg" width="750" height="1200" viewBox="0 0 750 1200" role="img" aria-labelledby="title desc">
  <title id="title">Tre di Bastoni</title>
    <desc id="desc">Traditional-style carte da gioco italiane.</desc>
  <defs>
    <linearGradient id="paperGradient" x1="0" y1="0" x2="0" y2="1">
      <stop offset="0%" stop-color="#fffdf6"/>
      <stop offset="100%" stop-color="#f5eddc"/>
    </linearGradient>
    <filter id="shadow" x="-20%" y="-20%" width="140%" height="140%">
      <feDropShadow dx="0" dy="6" stdDeviation="8" flood-color="#000000" flood-opacity="0.18"/>
    </filter>
  </defs>
    <rect x="13" y="13" width="724" height="1174" rx="36" fill="url(#paperGradient)"/>
<g transform="translate(375 320) rotate(0)">
  <rect x="-20.9" y="-110.2" width="41.8" height="220.4" rx="19" fill="#8b6331" stroke="#314116" stroke-width="5.7"/>
  <path d="M -20.9 -64.6 C -64.6 -49.4, -64.6 0, -19 11.4" fill="none" stroke="#5c6b2d" stroke-width="5.7"/>
  <path d="M -20.9 53.2 C 68.4 34.2, 68.4 -11.4, 19 -26.6" fill="none" stroke="#5c6b2d" stroke-width="5.7"/>
  <path d="M -7.6 -114 C -41.8 -155.8, -64.6 -148.2, -53.2 -95 C -38 -68.4, -15.2 -83.6, -7.6 -114 Z" fill="#b4c08b" stroke="#314116" stroke-width="5.7"/>
  <path d="M 7.6 114 C 41.8 155.8, 64.6 148.2, 53.2 95 C 38 68.4, 15.2 83.6, 7.6 114 Z" fill="#b4c08b" stroke="#314116" stroke-width="5.7"/>
</g>
<g transform="translate(375 600) rotate(-45)">
  <rect x="-31.35" y="-165.3" width="62.7" height="330.6" rx="28.5" fill="#8b6331" stroke="#314116" stroke-width="8.55"/>
  <path d="M -31.35 -96.9 C -96.9 -74.1, -96.9 0, -28.5 17.1" fill="none" stroke="#5c6b2d" stroke-width="8.55"/>
  <path d="M -31.35 79.8 C 102.6 51.3, 102.6 -17.1, 28.5 -39.9" fill="none" stroke="#5c6b2d" stroke-width="8.55"/>
  <path d="M -11.4 -171 C -62.7 -233.7, -96.9 -222.3, -79.8 -142.5 C -57 -102.6, -22.8 -125.4, -11.4 -171 Z" fill="#b4c08b" stroke="#314116" stroke-width="8.55"/>
  <path d="M 11.4 171 C 62.7 233.7, 96.9 222.3, 79.8 142.5 C 57 102.6, 22.8 125.4, 11.4 171 Z" fill="#b4c08b" stroke="#314116" stroke-width="8.55"/>
</g>
<g transform="translate(375 880) rotate(180)">
  <rect x="-20.9" y="-110.2" width="41.8" height="220.4" rx="19" fill="#8b6331" stroke="#314116" stroke-width="5.7"/>
  <path d="M -20.9 -64.6 C -64.6 -49.4, -64.6 0, -19 11.4" fill="none" stroke="#5c6b2d" stroke-width="5.7"/>
  <path d="M -20.9 53.2 C 68.4 34.2, 68.4 -11.4, 19 -26.6" fill="none" stroke="#5c6b2d" stroke-width="5.7"/>
  <path d="M -7.6 -114 C -41.8 -155.8, -64.6 -148.2, -53.2 -95 C -38 -68.4, -15.2 -83.6, -7.6 -114 Z" fill="#b4c08b" stroke="#314116" stroke-width="5.7"/>
  <path d="M 7.6 114 C 41.8 155.8, 64.6 148.2, 53.2 95 C 38 68.4, 15.2 83.6, 7.6 114 Z" fill="#b4c08b" stroke="#314116" stroke-width="5.7"/>
</g>
    <rect x="13" y="13" width="724" height="1174" rx="36" fill="none" stroke="#2a241c" stroke-opacity="0.32" stroke-width="5"/>
</svg>
