<svg xmlns="http://www.w3.org/2000/svg" width="750" height="1200" viewBox="0 0 750 1200" role="img" aria-labelledby="title desc">
  <title id="title">Cavallo di Coppe</title>
    <desc id="desc">Traditional-style carte da gioco italiane.</desc>
  <defs>
    <linearGradient id="paperGradient" x1="0" y1="0" x2="0" y2="1">
      <stop offset="0%" stop-color="#fffdf6"/>
      <stop offset="100%" stop-color="#f5eddc"/>
    </linearGradient>
    <filter id="shadow" x="-20%" y="-20%" width="140%" height="140%">
      <feDropShadow dx="0" dy="6" stdDeviation="8" flood-color="#000000" flood-opacity="0.18"/>
    </filter>
  </defs>
    <rect x="13" y="13" width="724" height="1174" rx="36" fill="url(#paperGradient)"/>
  <ellipse cx="375" cy="600" rx="160" ry="240" fill="#fbf6ec" stroke="#7f2424" stroke-width="4"/>
    <text x="375" y="660" text-anchor="middle" dominant-baseline="middle" font-size="480">&#x1F3C7;</text>
    <g transform="translate(190 840) rotate(-30)">
  <path d="M -78 -124.8 C -78 -46.8, -46.8 10.4, 0 26 C 46.8 10.4, 78 -46.8, 78 -124.8 Z" fill="#e9b4a8" stroke="#5d1717" stroke-width="7.8"/>
  <path d="M -46.8 -124.8 C -26 -171.6, 26 -171.6, 46.8 -124.8" fill="none" stroke="#a3352f" stroke-width="7.8"/>
  <path d="M -15.6 26 L -31.2 98.8 L 31.2 98.8 L 15.6 26 Z" fill="#a3352f" stroke="#5d1717" stroke-width="7.8"/>
  <rect x="-67.6" y="98.8" width="135" height="26" rx="8" fill="#a3352f" stroke="#5d1717" stroke-width="7.8"/>
  <path d="M -67.6 -72.8 C -93.6 -57.2, -98.8 -10.4, -62.4 10.4" fill="none" stroke="#5d1717" stroke-width="7.8"/>
  <path d="M 67.6 -72.8 C 93.6 -57.2, 98.8 -10.4, 62.4 10.4" fill="none" stroke="#5d1717" stroke-width="7.8"/>
</g>
    <rect x="165" y="230" width="420" height="105" rx="12" fill="#5d1717" opacity="0.72"/>
    <text x="375" y="300" text-anchor="middle" dominant-baseline="middle" font-size="72" font-family="Georgia, Times New Roman, serif" font-weight="700" fill="#f8eed6" letter-spacing="6">CAVALLO</text>
    <rect x="13" y="13" width="724" height="1174" rx="36" fill="none" stroke="#2a241c" stroke-opacity="0.32" stroke-width="5"/>
</svg>
