<svg xmlns="http://www.w3.org/2000/svg" width="750" height="1200" viewBox="0 0 750 1200" role="img" aria-labelledby="title desc">
  <title id="title">Sette di Coppe</title>
    <desc id="desc">Traditional-style carte da gioco italiane.</desc>
  <defs>
    <linearGradient id="paperGradient" x1="0" y1="0" x2="0" y2="1">
      <stop offset="0%" stop-color="#fffdf6"/>
      <stop offset="100%" stop-color="#f5eddc"/>
    </linearGradient>
    <filter id="shadow" x="-20%" y="-20%" width="140%" height="140%">
      <feDropShadow dx="0" dy="6" stdDeviation="8" flood-color="#000000" flood-opacity="0.18"/>
    </filter>
  </defs>
    <rect x="13" y="13" width="724" height="1174" rx="36" fill="url(#paperGradient)"/>
<g transform="translate(375 240) rotate(0)">
  <path d="M -48 -76.8 C -48 -28.8, -28.8 6.4, 0 16 C 28.8 6.4, 48 -28.8, 48 -76.8 Z" fill="#e9b4a8" stroke="#5d1717" stroke-width="4.8"/>
  <path d="M -28.8 -76.8 C -16 -105.6, 16 -105.6, 28.8 -76.8" fill="none" stroke="#a3352f" stroke-width="4.8"/>
  <path d="M -9.6 16 L -19.2 60.8 L 19.2 60.8 L 9.6 16 Z" fill="#a3352f" stroke="#5d1717" stroke-width="4.8"/>
  <rect x="-41.6" y="60.8" width="83" height="16" rx="5" fill="#a3352f" stroke="#5d1717" stroke-width="4.8"/>
  <path d="M -41.6 -44.8 C -57.6 -35.2, -60.8 -6.4, -38.4 6.4" fill="none" stroke="#5d1717" stroke-width="4.8"/>
  <path d="M 41.6 -44.8 C 57.6 -35.2, 60.8 -6.4, 38.4 6.4" fill="none" stroke="#5d1717" stroke-width="4.8"/>
</g>
<g transform="translate(260 380) rotate(0)">
  <path d="M -48 -76.8 C -48 -28.8, -28.8 6.4, 0 16 C 28.8 6.4, 48 -28.8, 48 -76.8 Z" fill="#e9b4a8" stroke="#5d1717" stroke-width="4.8"/>
  <path d="M -28.8 -76.8 C -16 -105.6, 16 -105.6, 28.8 -76.8" fill="none" stroke="#a3352f" stroke-width="4.8"/>
  <path d="M -9.6 16 L -19.2 60.8 L 19.2 60.8 L 9.6 16 Z" fill="#a3352f" stroke="#5d1717" stroke-width="4.8"/>
  <rect x="-41.6" y="60.8" width="83" height="16" rx="5" fill="#a3352f" stroke="#5d1717" stroke-width="4.8"/>
  <path d="M -41.6 -44.8 C -57.6 -35.2, -60.8 -6.4, -38.4 6.4" fill="none" stroke="#5d1717" stroke-width="4.8"/>
  <path d="M 41.6 -44.8 C 57.6 -35.2, 60.8 -6.4, 38.4 6.4" fill="none" stroke="#5d1717" stroke-width="4.8"/>
</g>
<g transform="translate(490 380) rotate(0)">
  <path d="M -48 -76.8 C -48 -28.8, -28.8 6.4, 0 16 C 28.8 6.4, 48 -28.8, 48 -76.8 Z" fill="#e9b4a8" stroke="#5d1717" stroke-width="4.8"/>
  <path d="M -28.8 -76.8 C -16 -105.6, 16 -105.6, 28.8 -76.8" fill="none" stroke="#a3352f" stroke-width="4.8"/>
  <path d="M -9.6 16 L -19.2 60.8 L 19.2 60.8 L 9.6 16 Z" fill="#a3352f" stroke="#5d1717" stroke-width="4.8"/>
  <rect x="-41.6" y="60.8" width="83" height="16" rx="5" fill="#a3352f" stroke="#5d1717" stroke-width="4.8"/>
  <path d="M -41.6 -44.8 C -57.6 -35.2, -60.8 -6.4, -38.4 6.4" fill="none" stroke="#5d1717" stroke-width="4.8"/>
  <path d="M 41.6 -44.8 C 57.6 -35.2, 60.8 -6.4, 38.4 6.4" fill="none" stroke="#5d1717" stroke-width="4.8"/>
</g>
<g transform="translate(260 600) rotate(0)">
  <path d="M -48 -76.8 C -48 -28.8, -28.8 6.4, 0 16 C 28.8 6.4, 48 -28.8, 48 -76.8 Z" fill="#e9b4a8" stroke="#5d1717" stroke-width="4.8"/>
  <path d="M -28.8 -76.8 C -16 -105.6, 16 -105.6, 28.8 -76.8" fill="none" stroke="#a3352f" stroke-width="4.8"/>
  <path d="M -9.6 16 L -19.2 60.8 L 19.2 60.8 L 9.6 16 Z" fill="#a3352f" stroke="#5d1717" stroke-width="4.8"/>
  <rect x="-41.6" y="60.8" width="83" height="16" rx="5" fill="#a3352f" stroke="#5d1717" stroke-width="4.8"/>
  <path d="M -41.6 -44.8 C -57.6 -35.2, -60.8 -6.4, -38.4 6.4" fill="none" stroke="#5d1717" stroke-width="4.8"/>
  <path d="M 41.6 -44.8 C 57.6 -35.2, 60.8 -6.4, 38.4 6.4" fill="none" stroke="#5d1717" stroke-width="4.8"/>
</g>
<g transform="translate(490 600) rotate(0)">
  <path d="M -48 -76.8 C -48 -28.8, -28.8 6.4, 0 16 C 28.8 6.4, 48 -28.8, 48 -76.8 Z" fill="#e9b4a8" stroke="#5d1717" stroke-width="4.8"/>
  <path d="M -28.8 -76.8 C -16 -105.6, 16 -105.6, 28.8 -76.8" fill="none" stroke="#a3352f" stroke-width="4.8"/>
  <path d="M -9.6 16 L -19.2 60.8 L 19.2 60.8 L 9.6 16 Z" fill="#a3352f" stroke="#5d1717" stroke-width="4.8"/>
  <rect x="-41.6" y="60.8" width="83" height="16" rx="5" fill="#a3352f" stroke="#5d1717" stroke-width="4.8"/>
  <path d="M -41.6 -44.8 C -57.6 -35.2, -60.8 -6.4, -38.4 6.4" fill="none" stroke="#5d1717" stroke-width="4.8"/>
  <path d="M 41.6 -44.8 C 57.6 -35.2, 60.8 -6.4, 38.4 6.4" fill="none" stroke="#5d1717" stroke-width="4.8"/>
</g>
<g transform="translate(260 820) rotate(180)">
  <path d="M -48 -76.8 C -48 -28.8, -28.8 6.4, 0 16 C 28.8 6.4, 48 -28.8, 48 -76.8 Z" fill="#e9b4a8" stroke="#5d1717" stroke-width="4.8"/>
  <path d="M -28.8 -76.8 C -16 -105.6, 16 -105.6, 28.8 -76.8" fill="none" stroke="#a3352f" stroke-width="4.8"/>
  <path d="M -9.6 16 L -19.2 60.8 L 19.2 60.8 L 9.6 16 Z" fill="#a3352f" stroke="#5d1717" stroke-width="4.8"/>
  <rect x="-41.6" y="60.8" width="83" height="16" rx="5" fill="#a3352f" stroke="#5d1717" stroke-width="4.8"/>
  <path d="M -41.6 -44.8 C -57.6 -35.2, -60.8 -6.4, -38.4 6.4" fill="none" stroke="#5d1717" stroke-width="4.8"/>
  <path d="M 41.6 -44.8 C 57.6 -35.2, 60.8 -6.4, 38.4 6.4" fill="none" stroke="#5d1717" stroke-width="4.8"/>
</g>
<g transform="translate(490 820) rotate(180)">
  <path d="M -48 -76.8 C -48 -28.8, -28.8 6.4, 0 16 C 28.8 6.4, 48 -28.8, 48 -76.8 Z" fill="#e9b4a8" stroke="#5d1717" stroke-width="4.8"/>
  <path d="M -28.8 -76.8 C -16 -105.6, 16 -105.6, 28.8 -76.8" fill="none" stroke="#a3352f" stroke-width="4.8"/>
  <path d="M -9.6 16 L -19.2 60.8 L 19.2 60.8 L 9.6 16 Z" fill="#a3352f" stroke="#5d1717" stroke-width="4.8"/>
  <rect x="-41.6" y="60.8" width="83" height="16" rx="5" fill="#a3352f" stroke="#5d1717" stroke-width="4.8"/>
  <path d="M -41.6 -44.8 C -57.6 -35.2, -60.8 -6.4, -38.4 6.4" fill="none" stroke="#5d1717" stroke-width="4.8"/>
  <path d="M 41.6 -44.8 C 57.6 -35.2, 60.8 -6.4, 38.4 6.4" fill="none" stroke="#5d1717" stroke-width="4.8"/>
</g>
    <rect x="13" y="13" width="724" height="1174" rx="36" fill="none" stroke="#2a241c" stroke-opacity="0.32" stroke-width="5"/>
</svg>
