<svg xmlns="http://www.w3.org/2000/svg" width="750" height="1200" viewBox="0 0 750 1200" role="img" aria-labelledby="title desc">
  <title id="title">Cinque di Denari</title>
    <desc id="desc">Traditional-style carte da gioco italiane.</desc>
  <defs>
    <linearGradient id="paperGradient" x1="0" y1="0" x2="0" y2="1">
      <stop offset="0%" stop-color="#fffdf6"/>
      <stop offset="100%" stop-color="#f5eddc"/>
    </linearGradient>
    <filter id="shadow" x="-20%" y="-20%" width="140%" height="140%">
      <feDropShadow dx="0" dy="6" stdDeviation="8" flood-color="#000000" flood-opacity="0.18"/>
    </filter>
  </defs>
    <rect x="13" y="13" width="724" height="1174" rx="36" fill="url(#paperGradient)"/>
<g transform="translate(260 340) rotate(0)">
  <circle r="80.96" fill="#f4d78a" stroke="#784b0b" stroke-width="5.28"/>
  <circle r="63.36" fill="none" stroke="#c28a1e" stroke-width="5.28"/>
  <circle r="45.76" fill="#fbf4d9" stroke="#784b0b" stroke-width="5.28"/>
  <path d="M 0 -31.68 L 31.68 0 L 0 31.68 L -31.68 0 Z" fill="#c28a1e" stroke="#784b0b" stroke-width="5.28"/>
  <path d="M -31.68 0 L 0 -31.68 L 31.68 0 L 0 31.68 Z" fill="none" stroke="#784b0b" stroke-width="5.28"/>
</g>
<g transform="translate(490 340) rotate(0)">
  <circle r="80.96" fill="#f4d78a" stroke="#784b0b" stroke-width="5.28"/>
  <circle r="63.36" fill="none" stroke="#c28a1e" stroke-width="5.28"/>
  <circle r="45.76" fill="#fbf4d9" stroke="#784b0b" stroke-width="5.28"/>
  <path d="M 0 -31.68 L 31.68 0 L 0 31.68 L -31.68 0 Z" fill="#c28a1e" stroke="#784b0b" stroke-width="5.28"/>
  <path d="M -31.68 0 L 0 -31.68 L 31.68 0 L 0 31.68 Z" fill="none" stroke="#784b0b" stroke-width="5.28"/>
</g>
<g transform="translate(375 600) rotate(0)">
  <circle r="121.44" fill="#f4d78a" stroke="#784b0b" stroke-width="7.92"/>
  <circle r="95.04" fill="none" stroke="#c28a1e" stroke-width="7.92"/>
  <circle r="68.64" fill="#fbf4d9" stroke="#784b0b" stroke-width="7.92"/>
  <path d="M 0 -47.52 L 47.52 0 L 0 47.52 L -47.52 0 Z" fill="#c28a1e" stroke="#784b0b" stroke-width="7.92"/>
  <path d="M -47.52 0 L 0 -47.52 L 47.52 0 L 0 47.52 Z" fill="none" stroke="#784b0b" stroke-width="7.92"/>
</g>
<g transform="translate(260 860) rotate(180)">
  <circle r="80.96" fill="#f4d78a" stroke="#784b0b" stroke-width="5.28"/>
  <circle r="63.36" fill="none" stroke="#c28a1e" stroke-width="5.28"/>
  <circle r="45.76" fill="#fbf4d9" stroke="#784b0b" stroke-width="5.28"/>
  <path d="M 0 -31.68 L 31.68 0 L 0 31.68 L -31.68 0 Z" fill="#c28a1e" stroke="#784b0b" stroke-width="5.28"/>
  <path d="M -31.68 0 L 0 -31.68 L 31.68 0 L 0 31.68 Z" fill="none" stroke="#784b0b" stroke-width="5.28"/>
</g>
<g transform="translate(490 860) rotate(180)">
  <circle r="80.96" fill="#f4d78a" stroke="#784b0b" stroke-width="5.28"/>
  <circle r="63.36" fill="none" stroke="#c28a1e" stroke-width="5.28"/>
  <circle r="45.76" fill="#fbf4d9" stroke="#784b0b" stroke-width="5.28"/>
  <path d="M 0 -31.68 L 31.68 0 L 0 31.68 L -31.68 0 Z" fill="#c28a1e" stroke="#784b0b" stroke-width="5.28"/>
  <path d="M -31.68 0 L 0 -31.68 L 31.68 0 L 0 31.68 Z" fill="none" stroke="#784b0b" stroke-width="5.28"/>
</g>
    <rect x="13" y="13" width="724" height="1174" rx="36" fill="none" stroke="#2a241c" stroke-opacity="0.32" stroke-width="5"/>
</svg>
