<svg xmlns="http://www.w3.org/2000/svg" width="750" height="1200" viewBox="0 0 750 1200" role="img" aria-labelledby="title desc">
  <title id="title">Quattro di Denari</title>
    <desc id="desc">Traditional-style carte da gioco italiane.</desc>
  <defs>
    <linearGradient id="paperGradient" x1="0" y1="0" x2="0" y2="1">
      <stop offset="0%" stop-color="#fffdf6"/>
      <stop offset="100%" stop-color="#f5eddc"/>
    </linearGradient>
    <filter id="shadow" x="-20%" y="-20%" width="140%" height="140%">
      <feDropShadow dx="0" dy="6" stdDeviation="8" flood-color="#000000" flood-opacity="0.18"/>
    </filter>
  </defs>
    <rect x="13" y="13" width="724" height="1174" rx="36" fill="url(#paperGradient)"/>
<g transform="translate(260 340) rotate(0)">
  <circle r="82.8" fill="#f4d78a" stroke="#784b0b" stroke-width="5.4"/>
  <circle r="64.8" fill="none" stroke="#c28a1e" stroke-width="5.4"/>
  <circle r="46.8" fill="#fbf4d9" stroke="#784b0b" stroke-width="5.4"/>
  <path d="M 0 -32.4 L 32.4 0 L 0 32.4 L -32.4 0 Z" fill="#c28a1e" stroke="#784b0b" stroke-width="5.4"/>
  <path d="M -32.4 0 L 0 -32.4 L 32.4 0 L 0 32.4 Z" fill="none" stroke="#784b0b" stroke-width="5.4"/>
</g>
<g transform="translate(490 340) rotate(0)">
  <circle r="82.8" fill="#f4d78a" stroke="#784b0b" stroke-width="5.4"/>
  <circle r="64.8" fill="none" stroke="#c28a1e" stroke-width="5.4"/>
  <circle r="46.8" fill="#fbf4d9" stroke="#784b0b" stroke-width="5.4"/>
  <path d="M 0 -32.4 L 32.4 0 L 0 32.4 L -32.4 0 Z" fill="#c28a1e" stroke="#784b0b" stroke-width="5.4"/>
  <path d="M -32.4 0 L 0 -32.4 L 32.4 0 L 0 32.4 Z" fill="none" stroke="#784b0b" stroke-width="5.4"/>
</g>
<g transform="translate(260 860) rotate(180)">
  <circle r="82.8" fill="#f4d78a" stroke="#784b0b" stroke-width="5.4"/>
  <circle r="64.8" fill="none" stroke="#c28a1e" stroke-width="5.4"/>
  <circle r="46.8" fill="#fbf4d9" stroke="#784b0b" stroke-width="5.4"/>
  <path d="M 0 -32.4 L 32.4 0 L 0 32.4 L -32.4 0 Z" fill="#c28a1e" stroke="#784b0b" stroke-width="5.4"/>
  <path d="M -32.4 0 L 0 -32.4 L 32.4 0 L 0 32.4 Z" fill="none" stroke="#784b0b" stroke-width="5.4"/>
</g>
<g transform="translate(490 860) rotate(180)">
  <circle r="82.8" fill="#f4d78a" stroke="#784b0b" stroke-width="5.4"/>
  <circle r="64.8" fill="none" stroke="#c28a1e" stroke-width="5.4"/>
  <circle r="46.8" fill="#fbf4d9" stroke="#784b0b" stroke-width="5.4"/>
  <path d="M 0 -32.4 L 32.4 0 L 0 32.4 L -32.4 0 Z" fill="#c28a1e" stroke="#784b0b" stroke-width="5.4"/>
  <path d="M -32.4 0 L 0 -32.4 L 32.4 0 L 0 32.4 Z" fill="none" stroke="#784b0b" stroke-width="5.4"/>
</g>
    <rect x="13" y="13" width="724" height="1174" rx="36" fill="none" stroke="#2a241c" stroke-opacity="0.32" stroke-width="5"/>
</svg>
