<svg xmlns="http://www.w3.org/2000/svg" width="750" height="1200" viewBox="0 0 750 1200" role="img" aria-labelledby="title desc">
  <title id="title">Tre di Denari</title>
    <desc id="desc">Traditional-style carte da gioco italiane.</desc>
  <defs>
    <linearGradient id="paperGradient" x1="0" y1="0" x2="0" y2="1">
      <stop offset="0%" stop-color="#fffdf6"/>
      <stop offset="100%" stop-color="#f5eddc"/>
    </linearGradient>
    <filter id="shadow" x="-20%" y="-20%" width="140%" height="140%">
      <feDropShadow dx="0" dy="6" stdDeviation="8" flood-color="#000000" flood-opacity="0.18"/>
    </filter>
  </defs>
    <rect x="13" y="13" width="724" height="1174" rx="36" fill="url(#paperGradient)"/>
<g transform="translate(375 320) rotate(0)">
  <circle r="87.4" fill="#f4d78a" stroke="#784b0b" stroke-width="5.7"/>
  <circle r="68.4" fill="none" stroke="#c28a1e" stroke-width="5.7"/>
  <circle r="49.4" fill="#fbf4d9" stroke="#784b0b" stroke-width="5.7"/>
  <path d="M 0 -34.2 L 34.2 0 L 0 34.2 L -34.2 0 Z" fill="#c28a1e" stroke="#784b0b" stroke-width="5.7"/>
  <path d="M -34.2 0 L 0 -34.2 L 34.2 0 L 0 34.2 Z" fill="none" stroke="#784b0b" stroke-width="5.7"/>
</g>
<g transform="translate(375 600) rotate(0)">
  <circle r="131.1" fill="#f4d78a" stroke="#784b0b" stroke-width="8.55"/>
  <circle r="102.6" fill="none" stroke="#c28a1e" stroke-width="8.55"/>
  <circle r="74.1" fill="#fbf4d9" stroke="#784b0b" stroke-width="8.55"/>
  <path d="M 0 -51.3 L 51.3 0 L 0 51.3 L -51.3 0 Z" fill="#c28a1e" stroke="#784b0b" stroke-width="8.55"/>
  <path d="M -51.3 0 L 0 -51.3 L 51.3 0 L 0 51.3 Z" fill="none" stroke="#784b0b" stroke-width="8.55"/>
</g>
<g transform="translate(375 880) rotate(180)">
  <circle r="87.4" fill="#f4d78a" stroke="#784b0b" stroke-width="5.7"/>
  <circle r="68.4" fill="none" stroke="#c28a1e" stroke-width="5.7"/>
  <circle r="49.4" fill="#fbf4d9" stroke="#784b0b" stroke-width="5.7"/>
  <path d="M 0 -34.2 L 34.2 0 L 0 34.2 L -34.2 0 Z" fill="#c28a1e" stroke="#784b0b" stroke-width="5.7"/>
  <path d="M -34.2 0 L 0 -34.2 L 34.2 0 L 0 34.2 Z" fill="none" stroke="#784b0b" stroke-width="5.7"/>
</g>
    <rect x="13" y="13" width="724" height="1174" rx="36" fill="none" stroke="#2a241c" stroke-opacity="0.32" stroke-width="5"/>
</svg>
