<svg xmlns="http://www.w3.org/2000/svg" width="750" height="1200" viewBox="0 0 750 1200" role="img" aria-labelledby="title desc">
  <title id="title">Due di Spade</title>
    <desc id="desc">Traditional-style carte da gioco italiane.</desc>
  <defs>
    <linearGradient id="paperGradient" x1="0" y1="0" x2="0" y2="1">
      <stop offset="0%" stop-color="#fffdf6"/>
      <stop offset="100%" stop-color="#f5eddc"/>
    </linearGradient>
    <filter id="shadow" x="-20%" y="-20%" width="140%" height="140%">
      <feDropShadow dx="0" dy="6" stdDeviation="8" flood-color="#000000" flood-opacity="0.18"/>
    </filter>
  </defs>
    <rect x="13" y="13" width="724" height="1174" rx="36" fill="url(#paperGradient)"/>
<g transform="translate(375 380) rotate(0)">
  <path d="M 0 -140 L 20 -44 L 0 28 L -20 -44 Z" fill="#bdd0dc" stroke="#243746" stroke-width="6"/>
  <rect x="-52" y="20" width="104" height="18" rx="6" fill="#436b83" stroke="#243746" stroke-width="6"/>
  <rect x="-36" y="36" width="72" height="60" rx="8" fill="#d2a357" stroke="#243746" stroke-width="6"/>
  <circle cy="110" r="16" fill="#436b83" stroke="#243746" stroke-width="6"/>
</g>
<g transform="translate(375 820) rotate(180)">
  <path d="M 0 -140 L 20 -44 L 0 28 L -20 -44 Z" fill="#bdd0dc" stroke="#243746" stroke-width="6"/>
  <rect x="-52" y="20" width="104" height="18" rx="6" fill="#436b83" stroke="#243746" stroke-width="6"/>
  <rect x="-36" y="36" width="72" height="60" rx="8" fill="#d2a357" stroke="#243746" stroke-width="6"/>
  <circle cy="110" r="16" fill="#436b83" stroke="#243746" stroke-width="6"/>
</g>
    <rect x="13" y="13" width="724" height="1174" rx="36" fill="none" stroke="#2a241c" stroke-opacity="0.32" stroke-width="5"/>
</svg>
