<svg xmlns="http://www.w3.org/2000/svg" width="750" height="1200" viewBox="0 0 750 1200" role="img" aria-labelledby="title desc">
  <title id="title">Cinque di Spade</title>
    <desc id="desc">Traditional-style carte da gioco italiane.</desc>
  <defs>
    <linearGradient id="paperGradient" x1="0" y1="0" x2="0" y2="1">
      <stop offset="0%" stop-color="#fffdf6"/>
      <stop offset="100%" stop-color="#f5eddc"/>
    </linearGradient>
    <filter id="shadow" x="-20%" y="-20%" width="140%" height="140%">
      <feDropShadow dx="0" dy="6" stdDeviation="8" flood-color="#000000" flood-opacity="0.18"/>
    </filter>
  </defs>
    <rect x="13" y="13" width="724" height="1174" rx="36" fill="url(#paperGradient)"/>
<g transform="translate(260 340) rotate(0)">
  <path d="M 0 -123.2 L 17.6 -38.72 L 0 24.64 L -17.6 -38.72 Z" fill="#bdd0dc" stroke="#243746" stroke-width="5.28"/>
  <rect x="-45.76" y="17.6" width="92" height="16" rx="5" fill="#436b83" stroke="#243746" stroke-width="5.28"/>
  <rect x="-31.68" y="31.68" width="63" height="53" rx="7" fill="#d2a357" stroke="#243746" stroke-width="5.28"/>
  <circle cy="97" r="14" fill="#436b83" stroke="#243746" stroke-width="5.28"/>
</g>
<g transform="translate(490 340) rotate(0)">
  <path d="M 0 -123.2 L 17.6 -38.72 L 0 24.64 L -17.6 -38.72 Z" fill="#bdd0dc" stroke="#243746" stroke-width="5.28"/>
  <rect x="-45.76" y="17.6" width="92" height="16" rx="5" fill="#436b83" stroke="#243746" stroke-width="5.28"/>
  <rect x="-31.68" y="31.68" width="63" height="53" rx="7" fill="#d2a357" stroke="#243746" stroke-width="5.28"/>
  <circle cy="97" r="14" fill="#436b83" stroke="#243746" stroke-width="5.28"/>
</g>
<g transform="translate(375 600) rotate(0)">
  <path d="M 0 -184.8 L 26.4 -58.08 L 0 36.96 L -26.4 -58.08 Z" fill="#bdd0dc" stroke="#243746" stroke-width="7.92"/>
  <rect x="-68.64" y="26.4" width="137" height="24" rx="8" fill="#436b83" stroke="#243746" stroke-width="7.92"/>
  <rect x="-47.52" y="47.52" width="95" height="79" rx="11" fill="#d2a357" stroke="#243746" stroke-width="7.92"/>
  <circle cy="145" r="21" fill="#436b83" stroke="#243746" stroke-width="7.92"/>
</g>
<g transform="translate(260 860) rotate(180)">
  <path d="M 0 -123.2 L 17.6 -38.72 L 0 24.64 L -17.6 -38.72 Z" fill="#bdd0dc" stroke="#243746" stroke-width="5.28"/>
  <rect x="-45.76" y="17.6" width="92" height="16" rx="5" fill="#436b83" stroke="#243746" stroke-width="5.28"/>
  <rect x="-31.68" y="31.68" width="63" height="53" rx="7" fill="#d2a357" stroke="#243746" stroke-width="5.28"/>
  <circle cy="97" r="14" fill="#436b83" stroke="#243746" stroke-width="5.28"/>
</g>
<g transform="translate(490 860) rotate(180)">
  <path d="M 0 -123.2 L 17.6 -38.72 L 0 24.64 L -17.6 -38.72 Z" fill="#bdd0dc" stroke="#243746" stroke-width="5.28"/>
  <rect x="-45.76" y="17.6" width="92" height="16" rx="5" fill="#436b83" stroke="#243746" stroke-width="5.28"/>
  <rect x="-31.68" y="31.68" width="63" height="53" rx="7" fill="#d2a357" stroke="#243746" stroke-width="5.28"/>
  <circle cy="97" r="14" fill="#436b83" stroke="#243746" stroke-width="5.28"/>
</g>
    <rect x="13" y="13" width="724" height="1174" rx="36" fill="none" stroke="#2a241c" stroke-opacity="0.32" stroke-width="5"/>
</svg>
