<svg xmlns="http://www.w3.org/2000/svg" width="750" height="1200" viewBox="0 0 750 1200" role="img" aria-labelledby="title desc">
  <title id="title">Sette di Spade</title>
    <desc id="desc">Traditional-style carte da gioco italiane.</desc>
  <defs>
    <linearGradient id="paperGradient" x1="0" y1="0" x2="0" y2="1">
      <stop offset="0%" stop-color="#fffdf6"/>
      <stop offset="100%" stop-color="#f5eddc"/>
    </linearGradient>
    <filter id="shadow" x="-20%" y="-20%" width="140%" height="140%">
      <feDropShadow dx="0" dy="6" stdDeviation="8" flood-color="#000000" flood-opacity="0.18"/>
    </filter>
  </defs>
    <rect x="13" y="13" width="724" height="1174" rx="36" fill="url(#paperGradient)"/>
<g transform="translate(375 240) rotate(0)">
  <path d="M 0 -112 L 16 -35.2 L 0 22.4 L -16 -35.2 Z" fill="#bdd0dc" stroke="#243746" stroke-width="4.8"/>
  <rect x="-41.6" y="16" width="83" height="14" rx="5" fill="#436b83" stroke="#243746" stroke-width="4.8"/>
  <rect x="-28.8" y="28.8" width="58" height="48" rx="6" fill="#d2a357" stroke="#243746" stroke-width="4.8"/>
  <circle cy="88" r="13" fill="#436b83" stroke="#243746" stroke-width="4.8"/>
</g>
<g transform="translate(260 380) rotate(0)">
  <path d="M 0 -112 L 16 -35.2 L 0 22.4 L -16 -35.2 Z" fill="#bdd0dc" stroke="#243746" stroke-width="4.8"/>
  <rect x="-41.6" y="16" width="83" height="14" rx="5" fill="#436b83" stroke="#243746" stroke-width="4.8"/>
  <rect x="-28.8" y="28.8" width="58" height="48" rx="6" fill="#d2a357" stroke="#243746" stroke-width="4.8"/>
  <circle cy="88" r="13" fill="#436b83" stroke="#243746" stroke-width="4.8"/>
</g>
<g transform="translate(490 380) rotate(0)">
  <path d="M 0 -112 L 16 -35.2 L 0 22.4 L -16 -35.2 Z" fill="#bdd0dc" stroke="#243746" stroke-width="4.8"/>
  <rect x="-41.6" y="16" width="83" height="14" rx="5" fill="#436b83" stroke="#243746" stroke-width="4.8"/>
  <rect x="-28.8" y="28.8" width="58" height="48" rx="6" fill="#d2a357" stroke="#243746" stroke-width="4.8"/>
  <circle cy="88" r="13" fill="#436b83" stroke="#243746" stroke-width="4.8"/>
</g>
<g transform="translate(260 600) rotate(0)">
  <path d="M 0 -112 L 16 -35.2 L 0 22.4 L -16 -35.2 Z" fill="#bdd0dc" stroke="#243746" stroke-width="4.8"/>
  <rect x="-41.6" y="16" width="83" height="14" rx="5" fill="#436b83" stroke="#243746" stroke-width="4.8"/>
  <rect x="-28.8" y="28.8" width="58" height="48" rx="6" fill="#d2a357" stroke="#243746" stroke-width="4.8"/>
  <circle cy="88" r="13" fill="#436b83" stroke="#243746" stroke-width="4.8"/>
</g>
<g transform="translate(490 600) rotate(0)">
  <path d="M 0 -112 L 16 -35.2 L 0 22.4 L -16 -35.2 Z" fill="#bdd0dc" stroke="#243746" stroke-width="4.8"/>
  <rect x="-41.6" y="16" width="83" height="14" rx="5" fill="#436b83" stroke="#243746" stroke-width="4.8"/>
  <rect x="-28.8" y="28.8" width="58" height="48" rx="6" fill="#d2a357" stroke="#243746" stroke-width="4.8"/>
  <circle cy="88" r="13" fill="#436b83" stroke="#243746" stroke-width="4.8"/>
</g>
<g transform="translate(260 820) rotate(180)">
  <path d="M 0 -112 L 16 -35.2 L 0 22.4 L -16 -35.2 Z" fill="#bdd0dc" stroke="#243746" stroke-width="4.8"/>
  <rect x="-41.6" y="16" width="83" height="14" rx="5" fill="#436b83" stroke="#243746" stroke-width="4.8"/>
  <rect x="-28.8" y="28.8" width="58" height="48" rx="6" fill="#d2a357" stroke="#243746" stroke-width="4.8"/>
  <circle cy="88" r="13" fill="#436b83" stroke="#243746" stroke-width="4.8"/>
</g>
<g transform="translate(490 820) rotate(180)">
  <path d="M 0 -112 L 16 -35.2 L 0 22.4 L -16 -35.2 Z" fill="#bdd0dc" stroke="#243746" stroke-width="4.8"/>
  <rect x="-41.6" y="16" width="83" height="14" rx="5" fill="#436b83" stroke="#243746" stroke-width="4.8"/>
  <rect x="-28.8" y="28.8" width="58" height="48" rx="6" fill="#d2a357" stroke="#243746" stroke-width="4.8"/>
  <circle cy="88" r="13" fill="#436b83" stroke="#243746" stroke-width="4.8"/>
</g>
    <rect x="13" y="13" width="724" height="1174" rx="36" fill="none" stroke="#2a241c" stroke-opacity="0.32" stroke-width="5"/>
</svg>
