<svg xmlns="http://www.w3.org/2000/svg" width="750" height="1200" viewBox="0 0 750 1200" role="img" aria-labelledby="title desc">
  <title id="title">Sette di Bastoni</title>
    <desc id="desc">Traditional-style carte da gioco italiane.</desc>
  <defs>
    <linearGradient id="paperGradient" x1="0" y1="0" x2="0" y2="1">
      <stop offset="0%" stop-color="#fffdf6"/>
      <stop offset="100%" stop-color="#f5eddc"/>
    </linearGradient>
    <filter id="shadow" x="-20%" y="-20%" width="140%" height="140%">
      <feDropShadow dx="0" dy="6" stdDeviation="8" flood-color="#000000" flood-opacity="0.18"/>
    </filter>
  </defs>
    <rect x="13" y="13" width="724" height="1174" rx="36" fill="url(#paperGradient)"/>
<g transform="translate(375 240) rotate(0)">
  <rect x="-17.6" y="-92.8" width="35.2" height="185.6" rx="16" fill="#8b6331" stroke="#314116" stroke-width="4.8"/>
  <path d="M -17.6 -54.4 C -54.4 -41.6, -54.4 0, -16 9.6" fill="none" stroke="#5c6b2d" stroke-width="4.8"/>
  <path d="M -17.6 44.8 C 57.6 28.8, 57.6 -9.6, 16 -22.4" fill="none" stroke="#5c6b2d" stroke-width="4.8"/>
  <path d="M -6.4 -96 C -35.2 -131.2, -54.4 -124.8, -44.8 -80 C -32 -57.6, -12.8 -70.4, -6.4 -96 Z" fill="#b4c08b" stroke="#314116" stroke-width="4.8"/>
  <path d="M 6.4 96 C 35.2 131.2, 54.4 124.8, 44.8 80 C 32 57.6, 12.8 70.4, 6.4 96 Z" fill="#b4c08b" stroke="#314116" stroke-width="4.8"/>
</g>
<g transform="translate(260 380) rotate(0)">
  <rect x="-17.6" y="-92.8" width="35.2" height="185.6" rx="16" fill="#8b6331" stroke="#314116" stroke-width="4.8"/>
  <path d="M -17.6 -54.4 C -54.4 -41.6, -54.4 0, -16 9.6" fill="none" stroke="#5c6b2d" stroke-width="4.8"/>
  <path d="M -17.6 44.8 C 57.6 28.8, 57.6 -9.6, 16 -22.4" fill="none" stroke="#5c6b2d" stroke-width="4.8"/>
  <path d="M -6.4 -96 C -35.2 -131.2, -54.4 -124.8, -44.8 -80 C -32 -57.6, -12.8 -70.4, -6.4 -96 Z" fill="#b4c08b" stroke="#314116" stroke-width="4.8"/>
  <path d="M 6.4 96 C 35.2 131.2, 54.4 124.8, 44.8 80 C 32 57.6, 12.8 70.4, 6.4 96 Z" fill="#b4c08b" stroke="#314116" stroke-width="4.8"/>
</g>
<g transform="translate(490 380) rotate(0)">
  <rect x="-17.6" y="-92.8" width="35.2" height="185.6" rx="16" fill="#8b6331" stroke="#314116" stroke-width="4.8"/>
  <path d="M -17.6 -54.4 C -54.4 -41.6, -54.4 0, -16 9.6" fill="none" stroke="#5c6b2d" stroke-width="4.8"/>
  <path d="M -17.6 44.8 C 57.6 28.8, 57.6 -9.6, 16 -22.4" fill="none" stroke="#5c6b2d" stroke-width="4.8"/>
  <path d="M -6.4 -96 C -35.2 -131.2, -54.4 -124.8, -44.8 -80 C -32 -57.6, -12.8 -70.4, -6.4 -96 Z" fill="#b4c08b" stroke="#314116" stroke-width="4.8"/>
  <path d="M 6.4 96 C 35.2 131.2, 54.4 124.8, 44.8 80 C 32 57.6, 12.8 70.4, 6.4 96 Z" fill="#b4c08b" stroke="#314116" stroke-width="4.8"/>
</g>
<g transform="translate(260 600) rotate(0)">
  <rect x="-17.6" y="-92.8" width="35.2" height="185.6" rx="16" fill="#8b6331" stroke="#314116" stroke-width="4.8"/>
  <path d="M -17.6 -54.4 C -54.4 -41.6, -54.4 0, -16 9.6" fill="none" stroke="#5c6b2d" stroke-width="4.8"/>
  <path d="M -17.6 44.8 C 57.6 28.8, 57.6 -9.6, 16 -22.4" fill="none" stroke="#5c6b2d" stroke-width="4.8"/>
  <path d="M -6.4 -96 C -35.2 -131.2, -54.4 -124.8, -44.8 -80 C -32 -57.6, -12.8 -70.4, -6.4 -96 Z" fill="#b4c08b" stroke="#314116" stroke-width="4.8"/>
  <path d="M 6.4 96 C 35.2 131.2, 54.4 124.8, 44.8 80 C 32 57.6, 12.8 70.4, 6.4 96 Z" fill="#b4c08b" stroke="#314116" stroke-width="4.8"/>
</g>
<g transform="translate(490 600) rotate(0)">
  <rect x="-17.6" y="-92.8" width="35.2" height="185.6" rx="16" fill="#8b6331" stroke="#314116" stroke-width="4.8"/>
  <path d="M -17.6 -54.4 C -54.4 -41.6, -54.4 0, -16 9.6" fill="none" stroke="#5c6b2d" stroke-width="4.8"/>
  <path d="M -17.6 44.8 C 57.6 28.8, 57.6 -9.6, 16 -22.4" fill="none" stroke="#5c6b2d" stroke-width="4.8"/>
  <path d="M -6.4 -96 C -35.2 -131.2, -54.4 -124.8, -44.8 -80 C -32 -57.6, -12.8 -70.4, -6.4 -96 Z" fill="#b4c08b" stroke="#314116" stroke-width="4.8"/>
  <path d="M 6.4 96 C 35.2 131.2, 54.4 124.8, 44.8 80 C 32 57.6, 12.8 70.4, 6.4 96 Z" fill="#b4c08b" stroke="#314116" stroke-width="4.8"/>
</g>
<g transform="translate(260 820) rotate(180)">
  <rect x="-17.6" y="-92.8" width="35.2" height="185.6" rx="16" fill="#8b6331" stroke="#314116" stroke-width="4.8"/>
  <path d="M -17.6 -54.4 C -54.4 -41.6, -54.4 0, -16 9.6" fill="none" stroke="#5c6b2d" stroke-width="4.8"/>
  <path d="M -17.6 44.8 C 57.6 28.8, 57.6 -9.6, 16 -22.4" fill="none" stroke="#5c6b2d" stroke-width="4.8"/>
  <path d="M -6.4 -96 C -35.2 -131.2, -54.4 -124.8, -44.8 -80 C -32 -57.6, -12.8 -70.4, -6.4 -96 Z" fill="#b4c08b" stroke="#314116" stroke-width="4.8"/>
  <path d="M 6.4 96 C 35.2 131.2, 54.4 124.8, 44.8 80 C 32 57.6, 12.8 70.4, 6.4 96 Z" fill="#b4c08b" stroke="#314116" stroke-width="4.8"/>
</g>
<g transform="translate(490 820) rotate(180)">
  <rect x="-17.6" y="-92.8" width="35.2" height="185.6" rx="16" fill="#8b6331" stroke="#314116" stroke-width="4.8"/>
  <path d="M -17.6 -54.4 C -54.4 -41.6, -54.4 0, -16 9.6" fill="none" stroke="#5c6b2d" stroke-width="4.8"/>
  <path d="M -17.6 44.8 C 57.6 28.8, 57.6 -9.6, 16 -22.4" fill="none" stroke="#5c6b2d" stroke-width="4.8"/>
  <path d="M -6.4 -96 C -35.2 -131.2, -54.4 -124.8, -44.8 -80 C -32 -57.6, -12.8 -70.4, -6.4 -96 Z" fill="#b4c08b" stroke="#314116" stroke-width="4.8"/>
  <path d="M 6.4 96 C 35.2 131.2, 54.4 124.8, 44.8 80 C 32 57.6, 12.8 70.4, 6.4 96 Z" fill="#b4c08b" stroke="#314116" stroke-width="4.8"/>
</g>
    <rect x="13" y="13" width="724" height="1174" rx="36" fill="none" stroke="#2a241c" stroke-opacity="0.32" stroke-width="5"/>
</svg>
