<svg xmlns="http://www.w3.org/2000/svg" width="750" height="1200" viewBox="0 0 750 1200" role="img" aria-labelledby="title desc">
  <title id="title">Quattro di Bastoni</title>
    <desc id="desc">Traditional-style carte da gioco italiane.</desc>
  <defs>
    <linearGradient id="paperGradient" x1="0" y1="0" x2="0" y2="1">
      <stop offset="0%" stop-color="#fffdf6"/>
      <stop offset="100%" stop-color="#f5eddc"/>
    </linearGradient>
    <filter id="shadow" x="-20%" y="-20%" width="140%" height="140%">
      <feDropShadow dx="0" dy="6" stdDeviation="8" flood-color="#000000" flood-opacity="0.18"/>
    </filter>
  </defs>
    <rect x="13" y="13" width="724" height="1174" rx="36" fill="url(#paperGradient)"/>
<g transform="translate(260 340) rotate(0)">
  <rect x="-19.8" y="-104.4" width="39.6" height="208.8" rx="18" fill="#8b6331" stroke="#314116" stroke-width="5.4"/>
  <path d="M -19.8 -61.2 C -61.2 -46.8, -61.2 0, -18 10.8" fill="none" stroke="#5c6b2d" stroke-width="5.4"/>
  <path d="M -19.8 50.4 C 64.8 32.4, 64.8 -10.8, 18 -25.2" fill="none" stroke="#5c6b2d" stroke-width="5.4"/>
  <path d="M -7.2 -108 C -39.6 -147.6, -61.2 -140.4, -50.4 -90 C -36 -64.8, -14.4 -79.2, -7.2 -108 Z" fill="#b4c08b" stroke="#314116" stroke-width="5.4"/>
  <path d="M 7.2 108 C 39.6 147.6, 61.2 140.4, 50.4 90 C 36 64.8, 14.4 79.2, 7.2 108 Z" fill="#b4c08b" stroke="#314116" stroke-width="5.4"/>
</g>
<g transform="translate(490 340) rotate(0)">
  <rect x="-19.8" y="-104.4" width="39.6" height="208.8" rx="18" fill="#8b6331" stroke="#314116" stroke-width="5.4"/>
  <path d="M -19.8 -61.2 C -61.2 -46.8, -61.2 0, -18 10.8" fill="none" stroke="#5c6b2d" stroke-width="5.4"/>
  <path d="M -19.8 50.4 C 64.8 32.4, 64.8 -10.8, 18 -25.2" fill="none" stroke="#5c6b2d" stroke-width="5.4"/>
  <path d="M -7.2 -108 C -39.6 -147.6, -61.2 -140.4, -50.4 -90 C -36 -64.8, -14.4 -79.2, -7.2 -108 Z" fill="#b4c08b" stroke="#314116" stroke-width="5.4"/>
  <path d="M 7.2 108 C 39.6 147.6, 61.2 140.4, 50.4 90 C 36 64.8, 14.4 79.2, 7.2 108 Z" fill="#b4c08b" stroke="#314116" stroke-width="5.4"/>
</g>
<g transform="translate(260 860) rotate(180)">
  <rect x="-19.8" y="-104.4" width="39.6" height="208.8" rx="18" fill="#8b6331" stroke="#314116" stroke-width="5.4"/>
  <path d="M -19.8 -61.2 C -61.2 -46.8, -61.2 0, -18 10.8" fill="none" stroke="#5c6b2d" stroke-width="5.4"/>
  <path d="M -19.8 50.4 C 64.8 32.4, 64.8 -10.8, 18 -25.2" fill="none" stroke="#5c6b2d" stroke-width="5.4"/>
  <path d="M -7.2 -108 C -39.6 -147.6, -61.2 -140.4, -50.4 -90 C -36 -64.8, -14.4 -79.2, -7.2 -108 Z" fill="#b4c08b" stroke="#314116" stroke-width="5.4"/>
  <path d="M 7.2 108 C 39.6 147.6, 61.2 140.4, 50.4 90 C 36 64.8, 14.4 79.2, 7.2 108 Z" fill="#b4c08b" stroke="#314116" stroke-width="5.4"/>
</g>
<g transform="translate(490 860) rotate(180)">
  <rect x="-19.8" y="-104.4" width="39.6" height="208.8" rx="18" fill="#8b6331" stroke="#314116" stroke-width="5.4"/>
  <path d="M -19.8 -61.2 C -61.2 -46.8, -61.2 0, -18 10.8" fill="none" stroke="#5c6b2d" stroke-width="5.4"/>
  <path d="M -19.8 50.4 C 64.8 32.4, 64.8 -10.8, 18 -25.2" fill="none" stroke="#5c6b2d" stroke-width="5.4"/>
  <path d="M -7.2 -108 C -39.6 -147.6, -61.2 -140.4, -50.4 -90 C -36 -64.8, -14.4 -79.2, -7.2 -108 Z" fill="#b4c08b" stroke="#314116" stroke-width="5.4"/>
  <path d="M 7.2 108 C 39.6 147.6, 61.2 140.4, 50.4 90 C 36 64.8, 14.4 79.2, 7.2 108 Z" fill="#b4c08b" stroke="#314116" stroke-width="5.4"/>
</g>
    <rect x="13" y="13" width="724" height="1174" rx="36" fill="none" stroke="#2a241c" stroke-opacity="0.32" stroke-width="5"/>
</svg>
