<svg xmlns="http://www.w3.org/2000/svg" width="750" height="1200" viewBox="0 0 750 1200" role="img" aria-labelledby="title desc">
  <title id="title">Due di Bastoni</title>
    <desc id="desc">Traditional-style carte da gioco italiane.</desc>
  <defs>
    <linearGradient id="paperGradient" x1="0" y1="0" x2="0" y2="1">
      <stop offset="0%" stop-color="#fffdf6"/>
      <stop offset="100%" stop-color="#f5eddc"/>
    </linearGradient>
    <filter id="shadow" x="-20%" y="-20%" width="140%" height="140%">
      <feDropShadow dx="0" dy="6" stdDeviation="8" flood-color="#000000" flood-opacity="0.18"/>
    </filter>
  </defs>
    <rect x="13" y="13" width="724" height="1174" rx="36" fill="url(#paperGradient)"/>
<g transform="translate(375 380) rotate(0)">
  <rect x="-22" y="-116" width="44" height="232" rx="20" fill="#8b6331" stroke="#314116" stroke-width="6"/>
  <path d="M -22 -68 C -68 -52, -68 0, -20 12" fill="none" stroke="#5c6b2d" stroke-width="6"/>
  <path d="M -22 56 C 72 36, 72 -12, 20 -28" fill="none" stroke="#5c6b2d" stroke-width="6"/>
  <path d="M -8 -120 C -44 -164, -68 -156, -56 -100 C -40 -72, -16 -88, -8 -120 Z" fill="#b4c08b" stroke="#314116" stroke-width="6"/>
  <path d="M 8 120 C 44 164, 68 156, 56 100 C 40 72, 16 88, 8 120 Z" fill="#b4c08b" stroke="#314116" stroke-width="6"/>
</g>
<g transform="translate(375 820) rotate(180)">
  <rect x="-22" y="-116" width="44" height="232" rx="20" fill="#8b6331" stroke="#314116" stroke-width="6"/>
  <path d="M -22 -68 C -68 -52, -68 0, -20 12" fill="none" stroke="#5c6b2d" stroke-width="6"/>
  <path d="M -22 56 C 72 36, 72 -12, 20 -28" fill="none" stroke="#5c6b2d" stroke-width="6"/>
  <path d="M -8 -120 C -44 -164, -68 -156, -56 -100 C -40 -72, -16 -88, -8 -120 Z" fill="#b4c08b" stroke="#314116" stroke-width="6"/>
  <path d="M 8 120 C 44 164, 68 156, 56 100 C 40 72, 16 88, 8 120 Z" fill="#b4c08b" stroke="#314116" stroke-width="6"/>
</g>
    <rect x="13" y="13" width="724" height="1174" rx="36" fill="none" stroke="#2a241c" stroke-opacity="0.32" stroke-width="5"/>
</svg>
