<svg xmlns="http://www.w3.org/2000/svg" width="750" height="1200" viewBox="0 0 750 1200" role="img" aria-labelledby="title desc">
  <title id="title">Sei di Bastoni</title>
    <desc id="desc">Traditional-style carte da gioco italiane.</desc>
  <defs>
    <linearGradient id="paperGradient" x1="0" y1="0" x2="0" y2="1">
      <stop offset="0%" stop-color="#fffdf6"/>
      <stop offset="100%" stop-color="#f5eddc"/>
    </linearGradient>
    <filter id="shadow" x="-20%" y="-20%" width="140%" height="140%">
      <feDropShadow dx="0" dy="6" stdDeviation="8" flood-color="#000000" flood-opacity="0.18"/>
    </filter>
  </defs>
    <rect x="13" y="13" width="724" height="1174" rx="36" fill="url(#paperGradient)"/>
<g transform="translate(260 300) rotate(0)">
  <rect x="-18.92" y="-99.76" width="37.84" height="199.52" rx="17.2" fill="#8b6331" stroke="#314116" stroke-width="5.16"/>
  <path d="M -18.92 -58.48 C -58.48 -44.72, -58.48 0, -17.2 10.32" fill="none" stroke="#5c6b2d" stroke-width="5.16"/>
  <path d="M -18.92 48.16 C 61.92 30.96, 61.92 -10.32, 17.2 -24.08" fill="none" stroke="#5c6b2d" stroke-width="5.16"/>
  <path d="M -6.88 -103.2 C -37.84 -141.04, -58.48 -134.16, -48.16 -86 C -34.4 -61.92, -13.76 -75.68, -6.88 -103.2 Z" fill="#b4c08b" stroke="#314116" stroke-width="5.16"/>
  <path d="M 6.88 103.2 C 37.84 141.04, 58.48 134.16, 48.16 86 C 34.4 61.92, 13.76 75.68, 6.88 103.2 Z" fill="#b4c08b" stroke="#314116" stroke-width="5.16"/>
</g>
<g transform="translate(490 300) rotate(0)">
  <rect x="-18.92" y="-99.76" width="37.84" height="199.52" rx="17.2" fill="#8b6331" stroke="#314116" stroke-width="5.16"/>
  <path d="M -18.92 -58.48 C -58.48 -44.72, -58.48 0, -17.2 10.32" fill="none" stroke="#5c6b2d" stroke-width="5.16"/>
  <path d="M -18.92 48.16 C 61.92 30.96, 61.92 -10.32, 17.2 -24.08" fill="none" stroke="#5c6b2d" stroke-width="5.16"/>
  <path d="M -6.88 -103.2 C -37.84 -141.04, -58.48 -134.16, -48.16 -86 C -34.4 -61.92, -13.76 -75.68, -6.88 -103.2 Z" fill="#b4c08b" stroke="#314116" stroke-width="5.16"/>
  <path d="M 6.88 103.2 C 37.84 141.04, 58.48 134.16, 48.16 86 C 34.4 61.92, 13.76 75.68, 6.88 103.2 Z" fill="#b4c08b" stroke="#314116" stroke-width="5.16"/>
</g>
<g transform="translate(260 600) rotate(0)">
  <rect x="-18.92" y="-99.76" width="37.84" height="199.52" rx="17.2" fill="#8b6331" stroke="#314116" stroke-width="5.16"/>
  <path d="M -18.92 -58.48 C -58.48 -44.72, -58.48 0, -17.2 10.32" fill="none" stroke="#5c6b2d" stroke-width="5.16"/>
  <path d="M -18.92 48.16 C 61.92 30.96, 61.92 -10.32, 17.2 -24.08" fill="none" stroke="#5c6b2d" stroke-width="5.16"/>
  <path d="M -6.88 -103.2 C -37.84 -141.04, -58.48 -134.16, -48.16 -86 C -34.4 -61.92, -13.76 -75.68, -6.88 -103.2 Z" fill="#b4c08b" stroke="#314116" stroke-width="5.16"/>
  <path d="M 6.88 103.2 C 37.84 141.04, 58.48 134.16, 48.16 86 C 34.4 61.92, 13.76 75.68, 6.88 103.2 Z" fill="#b4c08b" stroke="#314116" stroke-width="5.16"/>
</g>
<g transform="translate(490 600) rotate(0)">
  <rect x="-18.92" y="-99.76" width="37.84" height="199.52" rx="17.2" fill="#8b6331" stroke="#314116" stroke-width="5.16"/>
  <path d="M -18.92 -58.48 C -58.48 -44.72, -58.48 0, -17.2 10.32" fill="none" stroke="#5c6b2d" stroke-width="5.16"/>
  <path d="M -18.92 48.16 C 61.92 30.96, 61.92 -10.32, 17.2 -24.08" fill="none" stroke="#5c6b2d" stroke-width="5.16"/>
  <path d="M -6.88 -103.2 C -37.84 -141.04, -58.48 -134.16, -48.16 -86 C -34.4 -61.92, -13.76 -75.68, -6.88 -103.2 Z" fill="#b4c08b" stroke="#314116" stroke-width="5.16"/>
  <path d="M 6.88 103.2 C 37.84 141.04, 58.48 134.16, 48.16 86 C 34.4 61.92, 13.76 75.68, 6.88 103.2 Z" fill="#b4c08b" stroke="#314116" stroke-width="5.16"/>
</g>
<g transform="translate(260 900) rotate(180)">
  <rect x="-18.92" y="-99.76" width="37.84" height="199.52" rx="17.2" fill="#8b6331" stroke="#314116" stroke-width="5.16"/>
  <path d="M -18.92 -58.48 C -58.48 -44.72, -58.48 0, -17.2 10.32" fill="none" stroke="#5c6b2d" stroke-width="5.16"/>
  <path d="M -18.92 48.16 C 61.92 30.96, 61.92 -10.32, 17.2 -24.08" fill="none" stroke="#5c6b2d" stroke-width="5.16"/>
  <path d="M -6.88 -103.2 C -37.84 -141.04, -58.48 -134.16, -48.16 -86 C -34.4 -61.92, -13.76 -75.68, -6.88 -103.2 Z" fill="#b4c08b" stroke="#314116" stroke-width="5.16"/>
  <path d="M 6.88 103.2 C 37.84 141.04, 58.48 134.16, 48.16 86 C 34.4 61.92, 13.76 75.68, 6.88 103.2 Z" fill="#b4c08b" stroke="#314116" stroke-width="5.16"/>
</g>
<g transform="translate(490 900) rotate(180)">
  <rect x="-18.92" y="-99.76" width="37.84" height="199.52" rx="17.2" fill="#8b6331" stroke="#314116" stroke-width="5.16"/>
  <path d="M -18.92 -58.48 C -58.48 -44.72, -58.48 0, -17.2 10.32" fill="none" stroke="#5c6b2d" stroke-width="5.16"/>
  <path d="M -18.92 48.16 C 61.92 30.96, 61.92 -10.32, 17.2 -24.08" fill="none" stroke="#5c6b2d" stroke-width="5.16"/>
  <path d="M -6.88 -103.2 C -37.84 -141.04, -58.48 -134.16, -48.16 -86 C -34.4 -61.92, -13.76 -75.68, -6.88 -103.2 Z" fill="#b4c08b" stroke="#314116" stroke-width="5.16"/>
  <path d="M 6.88 103.2 C 37.84 141.04, 58.48 134.16, 48.16 86 C 34.4 61.92, 13.76 75.68, 6.88 103.2 Z" fill="#b4c08b" stroke="#314116" stroke-width="5.16"/>
</g>
    <rect x="13" y="13" width="724" height="1174" rx="36" fill="none" stroke="#2a241c" stroke-opacity="0.32" stroke-width="5"/>
</svg>
