<svg xmlns="http://www.w3.org/2000/svg" width="750" height="1200" viewBox="0 0 750 1200" role="img" aria-labelledby="title desc">
  <title id="title">Carte da Gioco Italiane Card Back</title>
    <desc id="desc">Traditional-style carte da gioco italiane.</desc>
  <defs>
    <linearGradient id="paperGradient" x1="0" y1="0" x2="0" y2="1">
      <stop offset="0%" stop-color="#fffdf6"/>
      <stop offset="100%" stop-color="#f5eddc"/>
    </linearGradient>
    <filter id="shadow" x="-20%" y="-20%" width="140%" height="140%">
      <feDropShadow dx="0" dy="6" stdDeviation="8" flood-color="#000000" flood-opacity="0.18"/>
    </filter>
  </defs>
    <rect x="13" y="13" width="724" height="1174" rx="36" fill="#efe4c8" stroke="#1f1b16" stroke-width="5" filter="url(#shadow)"/>
    <rect x="33" y="33" width="684" height="1134" rx="32" fill="#6f1f23" stroke="#ecd5a4" stroke-width="4"/>
    <rect x="59" y="59" width="632" height="1082" rx="26" fill="none" stroke="#f8eed6" stroke-width="2"/>
    <text x="375" y="280" text-anchor="middle" font-size="104" font-family="Georgia, Times New Roman, serif" letter-spacing="8" fill="#f8eed6" font-weight="700">CARTE</text>
  <circle cx="375" cy="600" r="200" fill="none" stroke="#ecd5a4" stroke-width="6"/>
  <circle cx="375" cy="600" r="160" fill="none" stroke="#f8eed6" stroke-width="3" stroke-dasharray="12 14"/>
  <path d="M375 384 L425 524 L550 524 L450 594 L500 734 L375 664 L250 734 L300 594 L200 524 L325 524 Z" fill="#ecd5a4" stroke="#f8eed6" stroke-width="5"/>
    <text x="375" y="950" text-anchor="middle" font-size="92" font-family="Georgia, Times New Roman, serif" letter-spacing="6" fill="#f8eed6">ITALIANE</text>
    <rect x="13" y="13" width="724" height="1174" rx="36" fill="none" stroke="#2a241c" stroke-opacity="0.32" stroke-width="5"/>
</svg>
