<svg xmlns="http://www.w3.org/2000/svg" width="750" height="1200" viewBox="0 0 750 1200" role="img" aria-labelledby="title desc">
  <title id="title">Sei di Coppe</title>
    <desc id="desc">Traditional-style carte da gioco italiane.</desc>
  <defs>
    <linearGradient id="paperGradient" x1="0" y1="0" x2="0" y2="1">
      <stop offset="0%" stop-color="#fffdf6"/>
      <stop offset="100%" stop-color="#f5eddc"/>
    </linearGradient>
    <filter id="shadow" x="-20%" y="-20%" width="140%" height="140%">
      <feDropShadow dx="0" dy="6" stdDeviation="8" flood-color="#000000" flood-opacity="0.18"/>
    </filter>
  </defs>
    <rect x="13" y="13" width="724" height="1174" rx="36" fill="url(#paperGradient)"/>
<g transform="translate(260 300) rotate(0)">
  <path d="M -51.6 -82.56 C -51.6 -30.96, -30.96 6.88, 0 17.2 C 30.96 6.88, 51.6 -30.96, 51.6 -82.56 Z" fill="#e9b4a8" stroke="#5d1717" stroke-width="5.16"/>
  <path d="M -30.96 -82.56 C -17.2 -113.52, 17.2 -113.52, 30.96 -82.56" fill="none" stroke="#a3352f" stroke-width="5.16"/>
  <path d="M -10.32 17.2 L -20.64 65.36 L 20.64 65.36 L 10.32 17.2 Z" fill="#a3352f" stroke="#5d1717" stroke-width="5.16"/>
  <rect x="-44.72" y="65.36" width="89" height="17" rx="5" fill="#a3352f" stroke="#5d1717" stroke-width="5.16"/>
  <path d="M -44.72 -48.16 C -61.92 -37.84, -65.36 -6.88, -41.28 6.88" fill="none" stroke="#5d1717" stroke-width="5.16"/>
  <path d="M 44.72 -48.16 C 61.92 -37.84, 65.36 -6.88, 41.28 6.88" fill="none" stroke="#5d1717" stroke-width="5.16"/>
</g>
<g transform="translate(490 300) rotate(0)">
  <path d="M -51.6 -82.56 C -51.6 -30.96, -30.96 6.88, 0 17.2 C 30.96 6.88, 51.6 -30.96, 51.6 -82.56 Z" fill="#e9b4a8" stroke="#5d1717" stroke-width="5.16"/>
  <path d="M -30.96 -82.56 C -17.2 -113.52, 17.2 -113.52, 30.96 -82.56" fill="none" stroke="#a3352f" stroke-width="5.16"/>
  <path d="M -10.32 17.2 L -20.64 65.36 L 20.64 65.36 L 10.32 17.2 Z" fill="#a3352f" stroke="#5d1717" stroke-width="5.16"/>
  <rect x="-44.72" y="65.36" width="89" height="17" rx="5" fill="#a3352f" stroke="#5d1717" stroke-width="5.16"/>
  <path d="M -44.72 -48.16 C -61.92 -37.84, -65.36 -6.88, -41.28 6.88" fill="none" stroke="#5d1717" stroke-width="5.16"/>
  <path d="M 44.72 -48.16 C 61.92 -37.84, 65.36 -6.88, 41.28 6.88" fill="none" stroke="#5d1717" stroke-width="5.16"/>
</g>
<g transform="translate(260 600) rotate(0)">
  <path d="M -51.6 -82.56 C -51.6 -30.96, -30.96 6.88, 0 17.2 C 30.96 6.88, 51.6 -30.96, 51.6 -82.56 Z" fill="#e9b4a8" stroke="#5d1717" stroke-width="5.16"/>
  <path d="M -30.96 -82.56 C -17.2 -113.52, 17.2 -113.52, 30.96 -82.56" fill="none" stroke="#a3352f" stroke-width="5.16"/>
  <path d="M -10.32 17.2 L -20.64 65.36 L 20.64 65.36 L 10.32 17.2 Z" fill="#a3352f" stroke="#5d1717" stroke-width="5.16"/>
  <rect x="-44.72" y="65.36" width="89" height="17" rx="5" fill="#a3352f" stroke="#5d1717" stroke-width="5.16"/>
  <path d="M -44.72 -48.16 C -61.92 -37.84, -65.36 -6.88, -41.28 6.88" fill="none" stroke="#5d1717" stroke-width="5.16"/>
  <path d="M 44.72 -48.16 C 61.92 -37.84, 65.36 -6.88, 41.28 6.88" fill="none" stroke="#5d1717" stroke-width="5.16"/>
</g>
<g transform="translate(490 600) rotate(0)">
  <path d="M -51.6 -82.56 C -51.6 -30.96, -30.96 6.88, 0 17.2 C 30.96 6.88, 51.6 -30.96, 51.6 -82.56 Z" fill="#e9b4a8" stroke="#5d1717" stroke-width="5.16"/>
  <path d="M -30.96 -82.56 C -17.2 -113.52, 17.2 -113.52, 30.96 -82.56" fill="none" stroke="#a3352f" stroke-width="5.16"/>
  <path d="M -10.32 17.2 L -20.64 65.36 L 20.64 65.36 L 10.32 17.2 Z" fill="#a3352f" stroke="#5d1717" stroke-width="5.16"/>
  <rect x="-44.72" y="65.36" width="89" height="17" rx="5" fill="#a3352f" stroke="#5d1717" stroke-width="5.16"/>
  <path d="M -44.72 -48.16 C -61.92 -37.84, -65.36 -6.88, -41.28 6.88" fill="none" stroke="#5d1717" stroke-width="5.16"/>
  <path d="M 44.72 -48.16 C 61.92 -37.84, 65.36 -6.88, 41.28 6.88" fill="none" stroke="#5d1717" stroke-width="5.16"/>
</g>
<g transform="translate(260 900) rotate(180)">
  <path d="M -51.6 -82.56 C -51.6 -30.96, -30.96 6.88, 0 17.2 C 30.96 6.88, 51.6 -30.96, 51.6 -82.56 Z" fill="#e9b4a8" stroke="#5d1717" stroke-width="5.16"/>
  <path d="M -30.96 -82.56 C -17.2 -113.52, 17.2 -113.52, 30.96 -82.56" fill="none" stroke="#a3352f" stroke-width="5.16"/>
  <path d="M -10.32 17.2 L -20.64 65.36 L 20.64 65.36 L 10.32 17.2 Z" fill="#a3352f" stroke="#5d1717" stroke-width="5.16"/>
  <rect x="-44.72" y="65.36" width="89" height="17" rx="5" fill="#a3352f" stroke="#5d1717" stroke-width="5.16"/>
  <path d="M -44.72 -48.16 C -61.92 -37.84, -65.36 -6.88, -41.28 6.88" fill="none" stroke="#5d1717" stroke-width="5.16"/>
  <path d="M 44.72 -48.16 C 61.92 -37.84, 65.36 -6.88, 41.28 6.88" fill="none" stroke="#5d1717" stroke-width="5.16"/>
</g>
<g transform="translate(490 900) rotate(180)">
  <path d="M -51.6 -82.56 C -51.6 -30.96, -30.96 6.88, 0 17.2 C 30.96 6.88, 51.6 -30.96, 51.6 -82.56 Z" fill="#e9b4a8" stroke="#5d1717" stroke-width="5.16"/>
  <path d="M -30.96 -82.56 C -17.2 -113.52, 17.2 -113.52, 30.96 -82.56" fill="none" stroke="#a3352f" stroke-width="5.16"/>
  <path d="M -10.32 17.2 L -20.64 65.36 L 20.64 65.36 L 10.32 17.2 Z" fill="#a3352f" stroke="#5d1717" stroke-width="5.16"/>
  <rect x="-44.72" y="65.36" width="89" height="17" rx="5" fill="#a3352f" stroke="#5d1717" stroke-width="5.16"/>
  <path d="M -44.72 -48.16 C -61.92 -37.84, -65.36 -6.88, -41.28 6.88" fill="none" stroke="#5d1717" stroke-width="5.16"/>
  <path d="M 44.72 -48.16 C 61.92 -37.84, 65.36 -6.88, 41.28 6.88" fill="none" stroke="#5d1717" stroke-width="5.16"/>
</g>
    <rect x="13" y="13" width="724" height="1174" rx="36" fill="none" stroke="#2a241c" stroke-opacity="0.32" stroke-width="5"/>
</svg>
