<svg xmlns="http://www.w3.org/2000/svg" width="750" height="1200" viewBox="0 0 750 1200" role="img" aria-labelledby="title desc">
  <title id="title">Quattro di Coppe</title>
    <desc id="desc">Traditional-style carte da gioco italiane.</desc>
  <defs>
    <linearGradient id="paperGradient" x1="0" y1="0" x2="0" y2="1">
      <stop offset="0%" stop-color="#fffdf6"/>
      <stop offset="100%" stop-color="#f5eddc"/>
    </linearGradient>
    <filter id="shadow" x="-20%" y="-20%" width="140%" height="140%">
      <feDropShadow dx="0" dy="6" stdDeviation="8" flood-color="#000000" flood-opacity="0.18"/>
    </filter>
  </defs>
    <rect x="13" y="13" width="724" height="1174" rx="36" fill="url(#paperGradient)"/>
<g transform="translate(260 340) rotate(0)">
  <path d="M -54 -86.4 C -54 -32.4, -32.4 7.2, 0 18 C 32.4 7.2, 54 -32.4, 54 -86.4 Z" fill="#e9b4a8" stroke="#5d1717" stroke-width="5.4"/>
  <path d="M -32.4 -86.4 C -18 -118.8, 18 -118.8, 32.4 -86.4" fill="none" stroke="#a3352f" stroke-width="5.4"/>
  <path d="M -10.8 18 L -21.6 68.4 L 21.6 68.4 L 10.8 18 Z" fill="#a3352f" stroke="#5d1717" stroke-width="5.4"/>
  <rect x="-46.8" y="68.4" width="94" height="18" rx="5" fill="#a3352f" stroke="#5d1717" stroke-width="5.4"/>
  <path d="M -46.8 -50.4 C -64.8 -39.6, -68.4 -7.2, -43.2 7.2" fill="none" stroke="#5d1717" stroke-width="5.4"/>
  <path d="M 46.8 -50.4 C 64.8 -39.6, 68.4 -7.2, 43.2 7.2" fill="none" stroke="#5d1717" stroke-width="5.4"/>
</g>
<g transform="translate(490 340) rotate(0)">
  <path d="M -54 -86.4 C -54 -32.4, -32.4 7.2, 0 18 C 32.4 7.2, 54 -32.4, 54 -86.4 Z" fill="#e9b4a8" stroke="#5d1717" stroke-width="5.4"/>
  <path d="M -32.4 -86.4 C -18 -118.8, 18 -118.8, 32.4 -86.4" fill="none" stroke="#a3352f" stroke-width="5.4"/>
  <path d="M -10.8 18 L -21.6 68.4 L 21.6 68.4 L 10.8 18 Z" fill="#a3352f" stroke="#5d1717" stroke-width="5.4"/>
  <rect x="-46.8" y="68.4" width="94" height="18" rx="5" fill="#a3352f" stroke="#5d1717" stroke-width="5.4"/>
  <path d="M -46.8 -50.4 C -64.8 -39.6, -68.4 -7.2, -43.2 7.2" fill="none" stroke="#5d1717" stroke-width="5.4"/>
  <path d="M 46.8 -50.4 C 64.8 -39.6, 68.4 -7.2, 43.2 7.2" fill="none" stroke="#5d1717" stroke-width="5.4"/>
</g>
<g transform="translate(260 860) rotate(180)">
  <path d="M -54 -86.4 C -54 -32.4, -32.4 7.2, 0 18 C 32.4 7.2, 54 -32.4, 54 -86.4 Z" fill="#e9b4a8" stroke="#5d1717" stroke-width="5.4"/>
  <path d="M -32.4 -86.4 C -18 -118.8, 18 -118.8, 32.4 -86.4" fill="none" stroke="#a3352f" stroke-width="5.4"/>
  <path d="M -10.8 18 L -21.6 68.4 L 21.6 68.4 L 10.8 18 Z" fill="#a3352f" stroke="#5d1717" stroke-width="5.4"/>
  <rect x="-46.8" y="68.4" width="94" height="18" rx="5" fill="#a3352f" stroke="#5d1717" stroke-width="5.4"/>
  <path d="M -46.8 -50.4 C -64.8 -39.6, -68.4 -7.2, -43.2 7.2" fill="none" stroke="#5d1717" stroke-width="5.4"/>
  <path d="M 46.8 -50.4 C 64.8 -39.6, 68.4 -7.2, 43.2 7.2" fill="none" stroke="#5d1717" stroke-width="5.4"/>
</g>
<g transform="translate(490 860) rotate(180)">
  <path d="M -54 -86.4 C -54 -32.4, -32.4 7.2, 0 18 C 32.4 7.2, 54 -32.4, 54 -86.4 Z" fill="#e9b4a8" stroke="#5d1717" stroke-width="5.4"/>
  <path d="M -32.4 -86.4 C -18 -118.8, 18 -118.8, 32.4 -86.4" fill="none" stroke="#a3352f" stroke-width="5.4"/>
  <path d="M -10.8 18 L -21.6 68.4 L 21.6 68.4 L 10.8 18 Z" fill="#a3352f" stroke="#5d1717" stroke-width="5.4"/>
  <rect x="-46.8" y="68.4" width="94" height="18" rx="5" fill="#a3352f" stroke="#5d1717" stroke-width="5.4"/>
  <path d="M -46.8 -50.4 C -64.8 -39.6, -68.4 -7.2, -43.2 7.2" fill="none" stroke="#5d1717" stroke-width="5.4"/>
  <path d="M 46.8 -50.4 C 64.8 -39.6, 68.4 -7.2, 43.2 7.2" fill="none" stroke="#5d1717" stroke-width="5.4"/>
</g>
    <rect x="13" y="13" width="724" height="1174" rx="36" fill="none" stroke="#2a241c" stroke-opacity="0.32" stroke-width="5"/>
</svg>
