<svg xmlns="http://www.w3.org/2000/svg" width="750" height="1200" viewBox="0 0 750 1200" role="img" aria-labelledby="title desc">
  <title id="title">Asso di Coppe</title>
    <desc id="desc">Traditional-style carte da gioco italiane.</desc>
  <defs>
    <linearGradient id="paperGradient" x1="0" y1="0" x2="0" y2="1">
      <stop offset="0%" stop-color="#fffdf6"/>
      <stop offset="100%" stop-color="#f5eddc"/>
    </linearGradient>
    <filter id="shadow" x="-20%" y="-20%" width="140%" height="140%">
      <feDropShadow dx="0" dy="6" stdDeviation="8" flood-color="#000000" flood-opacity="0.18"/>
    </filter>
  </defs>
    <rect x="13" y="13" width="724" height="1174" rx="36" fill="url(#paperGradient)"/>
  <ellipse cx="375" cy="600" rx="160" ry="240" fill="#fbf6ec" stroke="#7f2424" stroke-width="4"/>
  <g transform="translate(375 600) rotate(0)">
  <path d="M -114 -182.4 C -114 -68.4, -68.4 15.2, 0 38 C 68.4 15.2, 114 -68.4, 114 -182.4 Z" fill="#e9b4a8" stroke="#5d1717" stroke-width="11.4"/>
  <path d="M -68.4 -182.4 C -38 -250.8, 38 -250.8, 68.4 -182.4" fill="none" stroke="#a3352f" stroke-width="11.4"/>
  <path d="M -22.8 38 L -45.6 144.4 L 45.6 144.4 L 22.8 38 Z" fill="#a3352f" stroke="#5d1717" stroke-width="11.4"/>
  <rect x="-98.8" y="144.4" width="198" height="38" rx="11" fill="#a3352f" stroke="#5d1717" stroke-width="11.4"/>
  <path d="M -98.8 -106.4 C -136.8 -83.6, -144.4 -15.2, -91.2 15.2" fill="none" stroke="#5d1717" stroke-width="11.4"/>
  <path d="M 98.8 -106.4 C 136.8 -83.6, 144.4 -15.2, 91.2 15.2" fill="none" stroke="#5d1717" stroke-width="11.4"/>
</g>
    <rect x="13" y="13" width="724" height="1174" rx="36" fill="none" stroke="#2a241c" stroke-opacity="0.32" stroke-width="5"/>
</svg>
