<svg xmlns="http://www.w3.org/2000/svg" width="750" height="1200" viewBox="0 0 750 1200" role="img" aria-labelledby="title desc">
  <title id="title">Due di Coppe</title>
    <desc id="desc">Traditional-style carte da gioco italiane.</desc>
  <defs>
    <linearGradient id="paperGradient" x1="0" y1="0" x2="0" y2="1">
      <stop offset="0%" stop-color="#fffdf6"/>
      <stop offset="100%" stop-color="#f5eddc"/>
    </linearGradient>
    <filter id="shadow" x="-20%" y="-20%" width="140%" height="140%">
      <feDropShadow dx="0" dy="6" stdDeviation="8" flood-color="#000000" flood-opacity="0.18"/>
    </filter>
  </defs>
    <rect x="13" y="13" width="724" height="1174" rx="36" fill="url(#paperGradient)"/>
<g transform="translate(375 380) rotate(0)">
  <path d="M -60 -96 C -60 -36, -36 8, 0 20 C 36 8, 60 -36, 60 -96 Z" fill="#e9b4a8" stroke="#5d1717" stroke-width="6"/>
  <path d="M -36 -96 C -20 -132, 20 -132, 36 -96" fill="none" stroke="#a3352f" stroke-width="6"/>
  <path d="M -12 20 L -24 76 L 24 76 L 12 20 Z" fill="#a3352f" stroke="#5d1717" stroke-width="6"/>
  <rect x="-52" y="76" width="104" height="20" rx="6" fill="#a3352f" stroke="#5d1717" stroke-width="6"/>
  <path d="M -52 -56 C -72 -44, -76 -8, -48 8" fill="none" stroke="#5d1717" stroke-width="6"/>
  <path d="M 52 -56 C 72 -44, 76 -8, 48 8" fill="none" stroke="#5d1717" stroke-width="6"/>
</g>
<g transform="translate(375 820) rotate(180)">
  <path d="M -60 -96 C -60 -36, -36 8, 0 20 C 36 8, 60 -36, 60 -96 Z" fill="#e9b4a8" stroke="#5d1717" stroke-width="6"/>
  <path d="M -36 -96 C -20 -132, 20 -132, 36 -96" fill="none" stroke="#a3352f" stroke-width="6"/>
  <path d="M -12 20 L -24 76 L 24 76 L 12 20 Z" fill="#a3352f" stroke="#5d1717" stroke-width="6"/>
  <rect x="-52" y="76" width="104" height="20" rx="6" fill="#a3352f" stroke="#5d1717" stroke-width="6"/>
  <path d="M -52 -56 C -72 -44, -76 -8, -48 8" fill="none" stroke="#5d1717" stroke-width="6"/>
  <path d="M 52 -56 C 72 -44, 76 -8, 48 8" fill="none" stroke="#5d1717" stroke-width="6"/>
</g>
    <rect x="13" y="13" width="724" height="1174" rx="36" fill="none" stroke="#2a241c" stroke-opacity="0.32" stroke-width="5"/>
</svg>
