<svg xmlns="http://www.w3.org/2000/svg" width="750" height="1200" viewBox="0 0 750 1200" role="img" aria-labelledby="title desc">
  <title id="title">Sette di Denari</title>
    <desc id="desc">Traditional-style carte da gioco italiane.</desc>
  <defs>
    <linearGradient id="paperGradient" x1="0" y1="0" x2="0" y2="1">
      <stop offset="0%" stop-color="#fffdf6"/>
      <stop offset="100%" stop-color="#f5eddc"/>
    </linearGradient>
    <filter id="shadow" x="-20%" y="-20%" width="140%" height="140%">
      <feDropShadow dx="0" dy="6" stdDeviation="8" flood-color="#000000" flood-opacity="0.18"/>
    </filter>
  </defs>
    <rect x="13" y="13" width="724" height="1174" rx="36" fill="url(#paperGradient)"/>
<g transform="translate(375 240) rotate(0)">
  <circle r="73.6" fill="#f4d78a" stroke="#784b0b" stroke-width="4.8"/>
  <circle r="57.6" fill="none" stroke="#c28a1e" stroke-width="4.8"/>
  <circle r="41.6" fill="#fbf4d9" stroke="#784b0b" stroke-width="4.8"/>
  <path d="M 0 -28.8 L 28.8 0 L 0 28.8 L -28.8 0 Z" fill="#c28a1e" stroke="#784b0b" stroke-width="4.8"/>
  <path d="M -28.8 0 L 0 -28.8 L 28.8 0 L 0 28.8 Z" fill="none" stroke="#784b0b" stroke-width="4.8"/>
</g>
<g transform="translate(260 380) rotate(0)">
  <circle r="73.6" fill="#f4d78a" stroke="#784b0b" stroke-width="4.8"/>
  <circle r="57.6" fill="none" stroke="#c28a1e" stroke-width="4.8"/>
  <circle r="41.6" fill="#fbf4d9" stroke="#784b0b" stroke-width="4.8"/>
  <path d="M 0 -28.8 L 28.8 0 L 0 28.8 L -28.8 0 Z" fill="#c28a1e" stroke="#784b0b" stroke-width="4.8"/>
  <path d="M -28.8 0 L 0 -28.8 L 28.8 0 L 0 28.8 Z" fill="none" stroke="#784b0b" stroke-width="4.8"/>
</g>
<g transform="translate(490 380) rotate(0)">
  <circle r="73.6" fill="#f4d78a" stroke="#784b0b" stroke-width="4.8"/>
  <circle r="57.6" fill="none" stroke="#c28a1e" stroke-width="4.8"/>
  <circle r="41.6" fill="#fbf4d9" stroke="#784b0b" stroke-width="4.8"/>
  <path d="M 0 -28.8 L 28.8 0 L 0 28.8 L -28.8 0 Z" fill="#c28a1e" stroke="#784b0b" stroke-width="4.8"/>
  <path d="M -28.8 0 L 0 -28.8 L 28.8 0 L 0 28.8 Z" fill="none" stroke="#784b0b" stroke-width="4.8"/>
</g>
<g transform="translate(260 600) rotate(0)">
  <circle r="73.6" fill="#f4d78a" stroke="#784b0b" stroke-width="4.8"/>
  <circle r="57.6" fill="none" stroke="#c28a1e" stroke-width="4.8"/>
  <circle r="41.6" fill="#fbf4d9" stroke="#784b0b" stroke-width="4.8"/>
  <path d="M 0 -28.8 L 28.8 0 L 0 28.8 L -28.8 0 Z" fill="#c28a1e" stroke="#784b0b" stroke-width="4.8"/>
  <path d="M -28.8 0 L 0 -28.8 L 28.8 0 L 0 28.8 Z" fill="none" stroke="#784b0b" stroke-width="4.8"/>
</g>
<g transform="translate(490 600) rotate(0)">
  <circle r="73.6" fill="#f4d78a" stroke="#784b0b" stroke-width="4.8"/>
  <circle r="57.6" fill="none" stroke="#c28a1e" stroke-width="4.8"/>
  <circle r="41.6" fill="#fbf4d9" stroke="#784b0b" stroke-width="4.8"/>
  <path d="M 0 -28.8 L 28.8 0 L 0 28.8 L -28.8 0 Z" fill="#c28a1e" stroke="#784b0b" stroke-width="4.8"/>
  <path d="M -28.8 0 L 0 -28.8 L 28.8 0 L 0 28.8 Z" fill="none" stroke="#784b0b" stroke-width="4.8"/>
</g>
<g transform="translate(260 820) rotate(180)">
  <circle r="73.6" fill="#f4d78a" stroke="#784b0b" stroke-width="4.8"/>
  <circle r="57.6" fill="none" stroke="#c28a1e" stroke-width="4.8"/>
  <circle r="41.6" fill="#fbf4d9" stroke="#784b0b" stroke-width="4.8"/>
  <path d="M 0 -28.8 L 28.8 0 L 0 28.8 L -28.8 0 Z" fill="#c28a1e" stroke="#784b0b" stroke-width="4.8"/>
  <path d="M -28.8 0 L 0 -28.8 L 28.8 0 L 0 28.8 Z" fill="none" stroke="#784b0b" stroke-width="4.8"/>
</g>
<g transform="translate(490 820) rotate(180)">
  <circle r="73.6" fill="#f4d78a" stroke="#784b0b" stroke-width="4.8"/>
  <circle r="57.6" fill="none" stroke="#c28a1e" stroke-width="4.8"/>
  <circle r="41.6" fill="#fbf4d9" stroke="#784b0b" stroke-width="4.8"/>
  <path d="M 0 -28.8 L 28.8 0 L 0 28.8 L -28.8 0 Z" fill="#c28a1e" stroke="#784b0b" stroke-width="4.8"/>
  <path d="M -28.8 0 L 0 -28.8 L 28.8 0 L 0 28.8 Z" fill="none" stroke="#784b0b" stroke-width="4.8"/>
</g>
    <rect x="13" y="13" width="724" height="1174" rx="36" fill="none" stroke="#2a241c" stroke-opacity="0.32" stroke-width="5"/>
</svg>
