<svg xmlns="http://www.w3.org/2000/svg" width="750" height="1200" viewBox="0 0 750 1200" role="img" aria-labelledby="title desc">
  <title id="title">Sei di Spade</title>
    <desc id="desc">Traditional-style carte da gioco italiane.</desc>
  <defs>
    <linearGradient id="paperGradient" x1="0" y1="0" x2="0" y2="1">
      <stop offset="0%" stop-color="#fffdf6"/>
      <stop offset="100%" stop-color="#f5eddc"/>
    </linearGradient>
    <filter id="shadow" x="-20%" y="-20%" width="140%" height="140%">
      <feDropShadow dx="0" dy="6" stdDeviation="8" flood-color="#000000" flood-opacity="0.18"/>
    </filter>
  </defs>
    <rect x="13" y="13" width="724" height="1174" rx="36" fill="url(#paperGradient)"/>
<g transform="translate(260 300) rotate(0)">
  <path d="M 0 -120.4 L 17.2 -37.84 L 0 24.08 L -17.2 -37.84 Z" fill="#bdd0dc" stroke="#243746" stroke-width="5.16"/>
  <rect x="-44.72" y="17.2" width="89" height="15" rx="5" fill="#436b83" stroke="#243746" stroke-width="5.16"/>
  <rect x="-30.96" y="30.96" width="62" height="52" rx="7" fill="#d2a357" stroke="#243746" stroke-width="5.16"/>
  <circle cy="95" r="14" fill="#436b83" stroke="#243746" stroke-width="5.16"/>
</g>
<g transform="translate(490 300) rotate(0)">
  <path d="M 0 -120.4 L 17.2 -37.84 L 0 24.08 L -17.2 -37.84 Z" fill="#bdd0dc" stroke="#243746" stroke-width="5.16"/>
  <rect x="-44.72" y="17.2" width="89" height="15" rx="5" fill="#436b83" stroke="#243746" stroke-width="5.16"/>
  <rect x="-30.96" y="30.96" width="62" height="52" rx="7" fill="#d2a357" stroke="#243746" stroke-width="5.16"/>
  <circle cy="95" r="14" fill="#436b83" stroke="#243746" stroke-width="5.16"/>
</g>
<g transform="translate(260 600) rotate(0)">
  <path d="M 0 -120.4 L 17.2 -37.84 L 0 24.08 L -17.2 -37.84 Z" fill="#bdd0dc" stroke="#243746" stroke-width="5.16"/>
  <rect x="-44.72" y="17.2" width="89" height="15" rx="5" fill="#436b83" stroke="#243746" stroke-width="5.16"/>
  <rect x="-30.96" y="30.96" width="62" height="52" rx="7" fill="#d2a357" stroke="#243746" stroke-width="5.16"/>
  <circle cy="95" r="14" fill="#436b83" stroke="#243746" stroke-width="5.16"/>
</g>
<g transform="translate(490 600) rotate(0)">
  <path d="M 0 -120.4 L 17.2 -37.84 L 0 24.08 L -17.2 -37.84 Z" fill="#bdd0dc" stroke="#243746" stroke-width="5.16"/>
  <rect x="-44.72" y="17.2" width="89" height="15" rx="5" fill="#436b83" stroke="#243746" stroke-width="5.16"/>
  <rect x="-30.96" y="30.96" width="62" height="52" rx="7" fill="#d2a357" stroke="#243746" stroke-width="5.16"/>
  <circle cy="95" r="14" fill="#436b83" stroke="#243746" stroke-width="5.16"/>
</g>
<g transform="translate(260 900) rotate(180)">
  <path d="M 0 -120.4 L 17.2 -37.84 L 0 24.08 L -17.2 -37.84 Z" fill="#bdd0dc" stroke="#243746" stroke-width="5.16"/>
  <rect x="-44.72" y="17.2" width="89" height="15" rx="5" fill="#436b83" stroke="#243746" stroke-width="5.16"/>
  <rect x="-30.96" y="30.96" width="62" height="52" rx="7" fill="#d2a357" stroke="#243746" stroke-width="5.16"/>
  <circle cy="95" r="14" fill="#436b83" stroke="#243746" stroke-width="5.16"/>
</g>
<g transform="translate(490 900) rotate(180)">
  <path d="M 0 -120.4 L 17.2 -37.84 L 0 24.08 L -17.2 -37.84 Z" fill="#bdd0dc" stroke="#243746" stroke-width="5.16"/>
  <rect x="-44.72" y="17.2" width="89" height="15" rx="5" fill="#436b83" stroke="#243746" stroke-width="5.16"/>
  <rect x="-30.96" y="30.96" width="62" height="52" rx="7" fill="#d2a357" stroke="#243746" stroke-width="5.16"/>
  <circle cy="95" r="14" fill="#436b83" stroke="#243746" stroke-width="5.16"/>
</g>
    <rect x="13" y="13" width="724" height="1174" rx="36" fill="none" stroke="#2a241c" stroke-opacity="0.32" stroke-width="5"/>
</svg>
